<svg xmlns="http://www.w3.org/2000/svg" width="375" height="299" fill="none" viewBox="0 0 375 299">
    <path fill="#fff" d="M4 83h367v198c0 5.523-4.477 10-10 10H14c-5.523 0-10-4.477-10-10V83z" filter="url(#a)"/>
    <path fill="#fff" d="M4 10C4 4.477 8.477 0 14 0h347c5.523 0 10 4.477 10 10v73H4V10z" filter="url(#b)"/>
    <path fill="#33A0E8" d="M30.107 131h1.176v-4.566c0-1.039.745-1.873 1.71-1.873.929 0 1.537.56 1.537 1.435V131h1.176v-4.737c0-.937.684-1.702 1.709-1.702 1.04 0 1.552.533 1.552 1.62V131h1.176v-5.093c0-1.545-.841-2.406-2.345-2.406-1.019 0-1.86.513-2.256 1.292h-.11c-.341-.766-1.038-1.292-2.037-1.292-.984 0-1.722.472-2.057 1.292h-.11v-1.162h-1.12V131zm12.538 2.666c1.305 0 1.893-.506 2.522-2.215l2.878-7.82h-1.251l-2.017 6.063h-.109l-2.023-6.063h-1.272l2.728 7.376-.137.437c-.308.889-.677 1.21-1.354 1.21-.164 0-.348-.007-.492-.034v1.005c.164.027.37.041.526.041zm7.04-2.666h1.176v-4.361c0-1.244.725-2.078 2.044-2.078 1.114 0 1.702.649 1.702 1.955V131h1.176v-4.771c0-1.73-.984-2.728-2.543-2.728-1.128 0-1.9.478-2.27 1.292h-.109v-4.088h-1.175V131zm11.273.13c2.099 0 3.398-1.449 3.398-3.815 0-2.372-1.3-3.814-3.398-3.814-2.099 0-3.398 1.442-3.398 3.814 0 2.366 1.3 3.815 3.398 3.815zm0-1.06c-1.395 0-2.18-1.011-2.18-2.755 0-1.75.785-2.754 2.18-2.754s2.18 1.004 2.18 2.754c0 1.744-.785 2.755-2.18 2.755zm11.204-6.439h-1.176v4.361c0 1.292-.71 2.065-2.01 2.065-1.175 0-1.667-.616-1.667-1.942v-4.484h-1.176v4.771c0 1.744.861 2.728 2.515 2.728 1.128 0 1.915-.465 2.284-1.285h.109V131h1.121v-7.369zm2.044 2.016c0 1.067.629 1.662 2.01 1.997l1.265.307c.786.192 1.168.533 1.168 1.039 0 .677-.71 1.149-1.702 1.149-.943 0-1.531-.397-1.73-1.019h-1.21c.13 1.224 1.259 2.01 2.9 2.01 1.674 0 2.952-.909 2.952-2.229 0-1.059-.67-1.661-2.057-1.996l-1.135-.273c-.868-.212-1.278-.527-1.278-1.032 0-.657.683-1.101 1.558-1.101.889 0 1.463.39 1.62.978h1.163c-.158-1.21-1.231-1.976-2.776-1.976-1.565 0-2.748.923-2.748 2.146zm10.438-1.107c1.17 0 1.949.861 1.976 2.167h-4.06c.088-1.306.909-2.167 2.084-2.167zm1.942 4.553c-.308.649-.95.998-1.9.998-1.251 0-2.065-.923-2.126-2.379v-.055h5.297v-.451c0-2.29-1.21-3.705-3.199-3.705-2.023 0-3.322 1.504-3.322 3.821 0 2.331 1.278 3.808 3.322 3.808 1.614 0 2.762-.779 3.104-2.037h-1.176zm6.706-5.592c-1.005 0-1.887.513-2.358 1.36h-.11v-1.23h-1.12v9.83h1.175v-3.568h.11c.403.779 1.25 1.237 2.303 1.237 1.873 0 3.097-1.511 3.097-3.815 0-2.317-1.217-3.814-3.097-3.814zm-.28 6.569c-1.326 0-2.167-1.066-2.167-2.755 0-1.695.84-2.754 2.174-2.754 1.346 0 2.153 1.032 2.153 2.754 0 1.723-.807 2.755-2.16 2.755zm11.183-6.439h-1.175v4.361c0 1.292-.711 2.065-2.01 2.065-1.176 0-1.668-.616-1.668-1.942v-4.484h-1.176v4.771c0 1.744.861 2.728 2.516 2.728 1.128 0 1.914-.465 2.283-1.285h.109V131h1.121v-7.369zM106.41 131h1.176v-4.566c0-1.039.813-1.791 1.935-1.791.232 0 .656.041.751.068v-1.176a5.15 5.15 0 0 0-.587-.034c-.978 0-1.826.506-2.044 1.224h-.11v-1.094h-1.121V131zm8.108-1.148c-1.368 0-2.133-1.04-2.133-2.646 0-1.606.765-2.645 2.133-2.645 1.36 0 2.187 1.039 2.187 2.645s-.82 2.646-2.187 2.646zm.054 3.978c2.01 0 3.282-1.053 3.282-2.7v-7.499h-1.122v1.169h-.109c-.424-.793-1.333-1.299-2.365-1.299-1.894 0-3.09 1.497-3.09 3.705s1.183 3.685 3.09 3.685c1.012 0 1.846-.458 2.31-1.272h.11v1.449c0 1.087-.786 1.737-2.106 1.737-1.059 0-1.716-.39-1.845-.992h-1.245c.178 1.217 1.313 2.017 3.09 2.017zm8.436-9.29c1.169 0 1.948.861 1.975 2.167h-4.06c.089-1.306.909-2.167 2.085-2.167zm1.941 4.553c-.307.649-.95.998-1.9.998-1.251 0-2.065-.923-2.126-2.379v-.055h5.298v-.451c0-2.29-1.21-3.705-3.2-3.705-2.023 0-3.322 1.504-3.322 3.821 0 2.331 1.279 3.808 3.322 3.808 1.614 0 2.762-.779 3.104-2.037h-1.176z"/>
    <path fill="#000" d="M36.37 151.893h-4.882v-3.391h4.628v-1.094h-4.628v-3.165h4.881v-1.107h-6.111V153h6.111v-1.107zM38.446 153h1.176v-4.361c0-1.292.759-2.078 1.935-2.078 1.175 0 1.736.628 1.736 1.955V153h1.176v-4.771c0-1.75-.923-2.728-2.577-2.728-1.128 0-1.846.478-2.215 1.292h-.11v-1.162h-1.12V153zm8.668-9.276v1.907h-1.19v.984h1.19v4.471c0 1.408.609 1.969 2.126 1.969.233 0 .458-.028.69-.069v-.991a4.844 4.844 0 0 1-.546.027c-.766 0-1.094-.369-1.094-1.237v-4.17h1.64v-.984h-1.64v-1.907h-1.176zM51.736 153h1.176v-7.369h-1.176V153zm.588-8.791c.451 0 .82-.369.82-.82a.823.823 0 0 0-.82-.821c-.451 0-.82.37-.82.821 0 .451.369.82.82.82zm2.83 8.791h1.176v-4.566c0-1.039.814-1.791 1.935-1.791.232 0 .656.041.752.068v-1.176a5.167 5.167 0 0 0-.588-.034c-.978 0-1.826.506-2.044 1.224h-.11v-1.094h-1.12V153zm8.067-6.46c1.169 0 1.948.861 1.975 2.167h-4.06c.089-1.306.909-2.167 2.085-2.167zm1.941 4.553c-.308.649-.95.998-1.9.998-1.251 0-2.065-.923-2.126-2.379v-.055h5.298v-.451c0-2.29-1.21-3.705-3.2-3.705-2.023 0-3.322 1.504-3.322 3.821 0 2.331 1.278 3.808 3.322 3.808 1.614 0 2.762-.779 3.104-2.037h-1.176zm7.56-7.369v1.907h-1.189v.984h1.19v4.471c0 1.408.608 1.969 2.126 1.969.232 0 .458-.028.69-.069v-.991a4.847 4.847 0 0 1-.547.027c-.765 0-1.094-.369-1.094-1.237v-4.17h1.641v-.984H73.9v-1.907h-1.176zM77.317 153h1.176v-4.566c0-1.039.814-1.791 1.935-1.791.232 0 .656.041.752.068v-1.176a5.167 5.167 0 0 0-.588-.034c-.978 0-1.825.506-2.044 1.224h-.11v-1.094h-1.12V153zm7.602-.902c-.855 0-1.49-.438-1.49-1.19 0-.738.492-1.128 1.613-1.203l1.982-.13v.677c0 1.053-.895 1.846-2.105 1.846zm-.219 1.032c.985 0 1.791-.431 2.27-1.217h.11V153h1.12v-5.045c0-1.531-1.005-2.454-2.802-2.454-1.573 0-2.735.779-2.892 1.962h1.19c.163-.581.779-.916 1.66-.916 1.101 0 1.668.499 1.668 1.408v.67l-2.126.13c-1.715.102-2.686.861-2.686 2.181 0 1.346 1.06 2.194 2.488 2.194zm5.674-.13h1.176v-4.361c0-1.292.759-2.078 1.934-2.078 1.176 0 1.737.628 1.737 1.955V153h1.175v-4.771c0-1.75-.922-2.728-2.577-2.728-1.128 0-1.845.478-2.215 1.292h-.109v-1.162h-1.121V153zm8.005-5.353c0 1.067.629 1.662 2.01 1.997l1.264.307c.786.192 1.169.533 1.169 1.039 0 .677-.711 1.149-1.702 1.149-.943 0-1.531-.397-1.73-1.019h-1.21c.13 1.224 1.258 2.01 2.899 2.01 1.675 0 2.953-.909 2.953-2.229 0-1.059-.67-1.661-2.057-1.996l-1.135-.273c-.868-.212-1.278-.527-1.278-1.032 0-.657.683-1.101 1.558-1.101.889 0 1.463.39 1.62.978h1.162c-.157-1.21-1.23-1.976-2.775-1.976-1.566 0-2.748.923-2.748 2.146zm9.768 4.451c-.854 0-1.49-.438-1.49-1.19 0-.738.492-1.128 1.614-1.203l1.982-.13v.677c0 1.053-.896 1.846-2.106 1.846zm-.218 1.032c.984 0 1.791-.431 2.269-1.217h.11V153h1.121v-5.045c0-1.531-1.005-2.454-2.803-2.454-1.572 0-2.734.779-2.892 1.962h1.19c.164-.581.779-.916 1.661-.916 1.101 0 1.668.499 1.668 1.408v.67l-2.126.13c-1.716.102-2.687.861-2.687 2.181 0 1.346 1.06 2.194 2.489 2.194zm11.771-5.243c-.205-1.313-1.299-2.386-3.09-2.386-2.064 0-3.377 1.49-3.377 3.787 0 2.345 1.32 3.842 3.384 3.842 1.771 0 2.871-.998 3.083-2.352h-1.189c-.219.834-.909 1.292-1.901 1.292-1.312 0-2.16-1.08-2.16-2.782 0-1.668.834-2.727 2.16-2.727 1.06 0 1.709.594 1.901 1.326h1.189zm2.365-4.163v1.907h-1.189v.984h1.189v4.471c0 1.408.609 1.969 2.126 1.969.233 0 .458-.028.691-.069v-.991a4.85 4.85 0 0 1-.547.027c-.766 0-1.094-.369-1.094-1.237v-4.17h1.641v-.984h-1.641v-1.907h-1.176zm4.622 9.276h1.175v-7.369h-1.175V153zm.587-8.791a.823.823 0 0 0 .821-.82.823.823 0 0 0-.821-.821c-.451 0-.82.37-.82.821 0 .451.369.82.82.82zm5.859 8.921c2.098 0 3.397-1.449 3.397-3.815 0-2.372-1.299-3.814-3.397-3.814-2.099 0-3.398 1.442-3.398 3.814 0 2.366 1.299 3.815 3.398 3.815zm0-1.06c-1.395 0-2.181-1.011-2.181-2.755 0-1.75.786-2.754 2.181-2.754 1.394 0 2.18 1.004 2.18 2.754 0 1.744-.786 2.755-2.18 2.755zm5.243.93h1.176v-4.361c0-1.292.759-2.078 1.934-2.078 1.176 0 1.737.628 1.737 1.955V153h1.175v-4.771c0-1.75-.922-2.728-2.577-2.728-1.128 0-1.845.478-2.215 1.292h-.109v-1.162h-1.121V153zm21.396-7.369h-1.182l-1.449 5.892h-.11l-1.647-5.892h-1.128l-1.648 5.892h-.109l-1.449-5.892h-1.19l2.065 7.369h1.189l1.641-5.701h.109l1.648 5.701h1.196l2.064-7.369zm3.637 6.467c-.854 0-1.49-.438-1.49-1.19 0-.738.492-1.128 1.613-1.203l1.983-.13v.677c0 1.053-.896 1.846-2.106 1.846zm-.219 1.032c.985 0 1.791-.431 2.27-1.217h.109V153h1.121v-5.045c0-1.531-1.004-2.454-2.802-2.454-1.573 0-2.735.779-2.892 1.962h1.19c.164-.581.779-.916 1.661-.916 1.1 0 1.668.499 1.668 1.408v.67l-2.126.13c-1.716.102-2.687.861-2.687 2.181 0 1.346 1.06 2.194 2.488 2.194zm5.503-5.483c0 1.067.629 1.662 2.01 1.997l1.265.307c.786.192 1.169.533 1.169 1.039 0 .677-.711 1.149-1.702 1.149-.944 0-1.532-.397-1.73-1.019h-1.21c.13 1.224 1.258 2.01 2.899 2.01 1.674 0 2.953-.909 2.953-2.229 0-1.059-.67-1.661-2.058-1.996l-1.135-.273c-.868-.212-1.278-.527-1.278-1.032 0-.657.684-1.101 1.559-1.101.888 0 1.462.39 1.62.978h1.162c-.157-1.21-1.231-1.976-2.776-1.976-1.565 0-2.748.923-2.748 2.146zm11.28 0c0 1.067.629 1.662 2.009 1.997l1.265.307c.786.192 1.169.533 1.169 1.039 0 .677-.711 1.149-1.702 1.149-.943 0-1.531-.397-1.73-1.019h-1.21c.13 1.224 1.258 2.01 2.899 2.01 1.675 0 2.953-.909 2.953-2.229 0-1.059-.67-1.661-2.058-1.996l-1.134-.273c-.869-.212-1.279-.527-1.279-1.032 0-.657.684-1.101 1.559-1.101.889 0 1.463.39 1.62.978h1.162c-.157-1.21-1.23-1.976-2.775-1.976-1.566 0-2.748.923-2.748 2.146zm7.499 5.353h1.175v-4.566c0-1.039.746-1.873 1.709-1.873.93 0 1.539.56 1.539 1.435V153h1.175v-4.737c0-.937.684-1.702 1.709-1.702 1.039 0 1.552.533 1.552 1.62V153h1.176v-5.093c0-1.545-.841-2.406-2.345-2.406-1.018 0-1.859.513-2.256 1.292h-.109c-.342-.766-1.039-1.292-2.037-1.292-.985 0-1.723.472-2.058 1.292h-.109v-1.162h-1.121V153zm15.21.13c2.098 0 3.397-1.449 3.397-3.815 0-2.372-1.299-3.814-3.397-3.814-2.099 0-3.398 1.442-3.398 3.814 0 2.366 1.299 3.815 3.398 3.815zm0-1.06c-1.395 0-2.181-1.011-2.181-2.755 0-1.75.786-2.754 2.181-2.754 1.394 0 2.18 1.004 2.18 2.754 0 1.744-.786 2.755-2.18 2.755zm8.271 1.06c2.099 0 3.398-1.449 3.398-3.815 0-2.372-1.299-3.814-3.398-3.814-2.098 0-3.397 1.442-3.397 3.814 0 2.366 1.299 3.815 3.397 3.815zm0-1.06c-1.394 0-2.181-1.011-2.181-2.755 0-1.75.787-2.754 2.181-2.754 1.395 0 2.181 1.004 2.181 2.754 0 1.744-.786 2.755-2.181 2.755zm5.736-8.346v1.907h-1.19v.984h1.19v4.471c0 1.408.608 1.969 2.125 1.969.233 0 .458-.028.691-.069v-.991a4.85 4.85 0 0 1-.547.027c-.766 0-1.094-.369-1.094-1.237v-4.17h1.641v-.984h-1.641v-1.907h-1.175zM221.35 153h1.175v-4.361c0-1.244.725-2.078 2.044-2.078 1.115 0 1.702.649 1.702 1.955V153h1.176v-4.771c0-1.73-.984-2.728-2.543-2.728-1.128 0-1.9.478-2.269 1.292h-.11v-4.088h-1.175V153zM32.377 174.098c-.855 0-1.49-.438-1.49-1.19 0-.738.492-1.128 1.613-1.203l1.982-.13v.677c0 1.053-.895 1.846-2.105 1.846zm-.219 1.032c.985 0 1.791-.431 2.27-1.217h.11V175h1.12v-5.045c0-1.531-1.005-2.454-2.803-2.454-1.572 0-2.734.779-2.891 1.962h1.19c.163-.581.779-.916 1.66-.916 1.101 0 1.668.499 1.668 1.408v.67l-2.126.13c-1.715.102-2.686.861-2.686 2.181 0 1.346 1.06 2.194 2.488 2.194zm5.674-.13h1.176v-4.361c0-1.292.759-2.078 1.934-2.078 1.176 0 1.737.628 1.737 1.955V175h1.175v-4.771c0-1.75-.922-2.728-2.577-2.728-1.128 0-1.845.478-2.215 1.292h-.109v-1.162h-1.121V175zm10.903.13c1.019 0 1.894-.485 2.359-1.306h.11V175h1.12v-10.295h-1.176v4.088h-.102c-.417-.807-1.285-1.292-2.31-1.292-1.874 0-3.097 1.504-3.097 3.814 0 2.318 1.21 3.815 3.096 3.815zm.274-6.569c1.333 0 2.167 1.066 2.167 2.754 0 1.703-.827 2.755-2.167 2.755-1.347 0-2.154-1.032-2.154-2.755 0-1.715.814-2.754 2.154-2.754zM58.627 175h1.176v-4.361c0-1.244.724-2.078 2.044-2.078 1.114 0 1.702.649 1.702 1.955V175h1.176v-4.771c0-1.73-.985-2.728-2.543-2.728-1.128 0-1.9.478-2.27 1.292h-.11v-4.088h-1.175V175zm10.514-.902c-.855 0-1.49-.438-1.49-1.19 0-.738.492-1.128 1.613-1.203l1.982-.13v.677c0 1.053-.895 1.846-2.105 1.846zm-.22 1.032c.985 0 1.792-.431 2.27-1.217h.11V175h1.12v-5.045c0-1.531-1.004-2.454-2.802-2.454-1.572 0-2.734.779-2.891 1.962h1.189c.164-.581.78-.916 1.661-.916 1.1 0 1.668.499 1.668 1.408v.67l-2.126.13c-1.716.102-2.686.861-2.686 2.181 0 1.346 1.06 2.194 2.488 2.194zm5.504-5.483c0 1.067.629 1.662 2.01 1.997l1.264.307c.786.192 1.17.533 1.17 1.039 0 .677-.712 1.149-1.703 1.149-.943 0-1.531-.397-1.73-1.019h-1.21c.13 1.224 1.258 2.01 2.899 2.01 1.675 0 2.953-.909 2.953-2.229 0-1.059-.67-1.661-2.058-1.996l-1.134-.273c-.868-.212-1.279-.527-1.279-1.032 0-.657.684-1.101 1.559-1.101.889 0 1.463.39 1.62.978h1.162c-.157-1.21-1.23-1.976-2.775-1.976-1.566 0-2.748.923-2.748 2.146zm7.191 0c0 1.067.63 1.662 2.01 1.997l1.265.307c.786.192 1.169.533 1.169 1.039 0 .677-.711 1.149-1.703 1.149-.943 0-1.53-.397-1.73-1.019h-1.209c.13 1.224 1.258 2.01 2.898 2.01 1.675 0 2.953-.909 2.953-2.229 0-1.059-.67-1.661-2.057-1.996l-1.135-.273c-.868-.212-1.278-.527-1.278-1.032 0-.657.683-1.101 1.558-1.101.89 0 1.463.39 1.62.978h1.163c-.158-1.21-1.23-1.976-2.776-1.976-1.565 0-2.748.923-2.748 2.146zM89.184 175h1.175v-10.295h-1.175V175zm6.398-6.46c1.169 0 1.948.861 1.976 2.167h-4.06c.088-1.306.908-2.167 2.084-2.167zm1.941 4.553c-.307.649-.95.998-1.9.998-1.25 0-2.064-.923-2.126-2.379v-.055h5.298v-.451c0-2.29-1.21-3.705-3.2-3.705-2.023 0-3.322 1.504-3.322 3.821 0 2.331 1.279 3.808 3.323 3.808 1.613 0 2.761-.779 3.103-2.037h-1.176zm7.561 1.907h1.176v-6.385h1.688v-.984h-1.688v-.786c0-.807.355-1.217 1.203-1.217.212 0 .41.007.554.034v-.957a4.119 4.119 0 0 0-.793-.068c-1.402 0-2.14.704-2.14 2.174v.82h-1.224v.984h1.224V175zm4.58 0h1.176v-4.566c0-1.039.813-1.791 1.934-1.791.233 0 .657.041.752.068v-1.176a5.155 5.155 0 0 0-.588-.034c-.977 0-1.825.506-2.043 1.224h-.11v-1.094h-1.121V175zm8.066-6.46c1.169 0 1.949.861 1.976 2.167h-4.06c.088-1.306.909-2.167 2.084-2.167zm1.942 4.553c-.308.649-.95.998-1.901.998-1.25 0-2.064-.923-2.125-2.379v-.055h5.297v-.451c0-2.29-1.21-3.705-3.199-3.705-2.023 0-3.322 1.504-3.322 3.821 0 2.331 1.278 3.808 3.322 3.808 1.613 0 2.762-.779 3.104-2.037h-1.176zm6.057-4.553c1.168 0 1.948.861 1.975 2.167h-4.06c.088-1.306.909-2.167 2.085-2.167zm1.941 4.553c-.308.649-.95.998-1.9.998-1.251 0-2.065-.923-2.126-2.379v-.055h5.297v-.451c0-2.29-1.21-3.705-3.199-3.705-2.023 0-3.322 1.504-3.322 3.821 0 2.331 1.278 3.808 3.322 3.808 1.613 0 2.762-.779 3.104-2.037h-1.176zm4.088 1.975a.89.89 0 0 0 .888-.888.887.887 0 0 0-.888-.889.892.892 0 0 0-.889.889c0 .485.403.888.889.888zm11.081-.068v-8.757h3.179v-1.107h-7.588v1.107h3.178V175h1.231zm4.997 0h1.176v-4.361c0-1.244.724-2.078 2.044-2.078 1.114 0 1.702.649 1.702 1.955V175h1.176v-4.771c0-1.73-.985-2.728-2.543-2.728-1.128 0-1.901.478-2.27 1.292h-.109v-4.088h-1.176V175zm10.514-.902c-.855 0-1.491-.438-1.491-1.19 0-.738.493-1.128 1.614-1.203l1.982-.13v.677c0 1.053-.895 1.846-2.105 1.846zm-.219 1.032c.984 0 1.791-.431 2.269-1.217h.11V175h1.121v-5.045c0-1.531-1.005-2.454-2.803-2.454-1.572 0-2.734.779-2.891 1.962h1.189c.164-.581.779-.916 1.661-.916 1.101 0 1.668.499 1.668 1.408v.67l-2.126.13c-1.716.102-2.686.861-2.686 2.181 0 1.346 1.059 2.194 2.488 2.194zm5.674-.13h1.175v-4.361c0-1.292.759-2.078 1.935-2.078 1.176 0 1.736.628 1.736 1.955V175h1.176v-4.771c0-1.75-.923-2.728-2.577-2.728-1.128 0-1.846.478-2.215 1.292h-.109v-1.162h-1.121V175zm9.529-4.149h-.109v-6.146h-1.176V175h1.176v-2.796l.704-.656L176.69 175h1.498l-3.384-4.211 3.172-3.158h-1.443l-3.199 3.22zm5.804-1.204c0 1.067.629 1.662 2.009 1.997l1.265.307c.786.192 1.169.533 1.169 1.039 0 .677-.711 1.149-1.702 1.149-.943 0-1.531-.397-1.73-1.019h-1.21c.13 1.224 1.258 2.01 2.899 2.01 1.675 0 2.953-.909 2.953-2.229 0-1.059-.67-1.661-2.058-1.996l-1.134-.273c-.869-.212-1.279-.527-1.279-1.032 0-.657.684-1.101 1.559-1.101.889 0 1.463.39 1.62.978h1.162c-.157-1.21-1.23-1.976-2.775-1.976-1.566 0-2.748.923-2.748 2.146zm11.279 0c0 1.067.629 1.662 2.01 1.997l1.264.307c.787.192 1.169.533 1.169 1.039 0 .677-.711 1.149-1.702 1.149-.943 0-1.531-.397-1.729-1.019h-1.21c.13 1.224 1.258 2.01 2.898 2.01 1.675 0 2.953-.909 2.953-2.229 0-1.059-.67-1.661-2.057-1.996l-1.135-.273c-.868-.212-1.278-.527-1.278-1.032 0-.657.683-1.101 1.558-1.101.889 0 1.463.39 1.62.978h1.162c-.157-1.21-1.23-1.976-2.775-1.976-1.565 0-2.748.923-2.748 2.146zm10.527 5.483c2.099 0 3.398-1.449 3.398-3.815 0-2.372-1.299-3.814-3.398-3.814-2.098 0-3.397 1.442-3.397 3.814 0 2.366 1.299 3.815 3.397 3.815zm0-1.06c-1.394 0-2.18-1.011-2.18-2.755 0-1.75.786-2.754 2.18-2.754 1.395 0 2.181 1.004 2.181 2.754 0 1.744-.786 2.755-2.181 2.755zm9.195.93h1.175v-4.566c0-1.039.746-1.873 1.709-1.873.93 0 1.539.56 1.539 1.435V175h1.175v-4.737c0-.937.684-1.702 1.709-1.702 1.039 0 1.552.533 1.552 1.62V175h1.176v-5.093c0-1.545-.841-2.406-2.345-2.406-1.018 0-1.859.513-2.256 1.292h-.109c-.342-.766-1.039-1.292-2.037-1.292-.985 0-1.723.472-2.058 1.292h-.109v-1.162h-1.121V175zm18.142-7.369h-1.176v4.361c0 1.292-.71 2.065-2.009 2.065-1.176 0-1.668-.616-1.668-1.942v-4.484h-1.176v4.771c0 1.744.861 2.728 2.516 2.728 1.128 0 1.914-.465 2.283-1.285h.109V175h1.121v-7.369zm8.313 2.256c-.205-1.313-1.299-2.386-3.09-2.386-2.065 0-3.377 1.49-3.377 3.787 0 2.345 1.319 3.842 3.384 3.842 1.77 0 2.871-.998 3.083-2.352h-1.19c-.218.834-.909 1.292-1.9 1.292-1.313 0-2.16-1.08-2.16-2.782 0-1.668.834-2.727 2.16-2.727 1.059 0 1.709.594 1.9 1.326h1.19zm1.804 5.113h1.176v-4.361c0-1.244.725-2.078 2.044-2.078 1.114 0 1.702.649 1.702 1.955V175h1.176v-4.771c0-1.73-.984-2.728-2.543-2.728-1.128 0-1.9.478-2.269 1.292h-.11v-4.088h-1.176V175zm8.627-9.871l.117 6.59h1.134l.117-6.59h-1.368zm.691 9.994c.554 0 .943-.396.943-.95 0-.561-.389-.957-.943-.957-.554 0-.95.396-.95.957 0 .554.396.95.95.95zM38.133 197v-9.864h-1.23v4.265h-5.415v-4.265h-1.23V197h1.23v-4.491h5.414V197h1.23zm2.392 0h1.176v-7.369h-1.176V197zm.588-8.791c.452 0 .82-.369.82-.82a.823.823 0 0 0-.82-.821c-.45 0-.82.37-.82.821 0 .451.37.82.82.82zm5.81 7.643c-1.366 0-2.132-1.04-2.132-2.646 0-1.606.766-2.645 2.133-2.645 1.36 0 2.187 1.039 2.187 2.645s-.82 2.646-2.187 2.646zm.055 3.978c2.01 0 3.282-1.053 3.282-2.7v-7.499h-1.121v1.169h-.11c-.424-.793-1.333-1.299-2.365-1.299-1.894 0-3.09 1.497-3.09 3.705s1.183 3.685 3.09 3.685c1.012 0 1.846-.458 2.31-1.272h.11v1.449c0 1.087-.786 1.737-2.106 1.737-1.06 0-1.715-.39-1.845-.992h-1.244c.177 1.217 1.312 2.017 3.09 2.017zm5.565-2.83h1.176v-4.361c0-1.244.724-2.078 2.044-2.078 1.114 0 1.702.649 1.702 1.955V197h1.176v-4.771c0-1.73-.985-2.728-2.543-2.728-1.128 0-1.9.478-2.27 1.292h-.11v-4.088h-1.175V197zm8.313 0h1.175v-10.295h-1.175V197zm4.087 2.666c1.306 0 1.894-.506 2.523-2.215l2.878-7.82h-1.251l-2.017 6.063h-.11l-2.023-6.063h-1.271l2.727 7.376-.136.437c-.308.889-.677 1.21-1.354 1.21-.164 0-.349-.007-.492-.034v1.005c.164.027.37.041.526.041zM75.867 197h1.176v-4.566c0-1.039.813-1.791 1.934-1.791.233 0 .657.041.752.068v-1.176a5.167 5.167 0 0 0-.587-.034c-.978 0-1.826.506-2.044 1.224h-.11v-1.094h-1.12V197zm8.067-6.46c1.169 0 1.948.861 1.975 2.167h-4.06c.088-1.306.909-2.167 2.085-2.167zm1.941 4.553c-.308.649-.95.998-1.9.998-1.251 0-2.065-.923-2.126-2.379v-.055h5.297v-.451c0-2.29-1.21-3.705-3.199-3.705-2.023 0-3.322 1.504-3.322 3.821 0 2.331 1.278 3.808 3.322 3.808 1.614 0 2.762-.779 3.104-2.037h-1.176zm9.215-3.206c-.205-1.313-1.299-2.386-3.09-2.386-2.064 0-3.377 1.49-3.377 3.787 0 2.345 1.32 3.842 3.384 3.842 1.77 0 2.87-.998 3.083-2.352H93.9c-.218.834-.909 1.292-1.9 1.292-1.313 0-2.16-1.08-2.16-2.782 0-1.668.834-2.727 2.16-2.727 1.06 0 1.709.594 1.9 1.326h1.19zm4.764 5.243c2.099 0 3.398-1.449 3.398-3.815 0-2.372-1.299-3.814-3.397-3.814-2.1 0-3.398 1.442-3.398 3.814 0 2.366 1.299 3.815 3.398 3.815zm0-1.06c-1.394 0-2.18-1.011-2.18-2.755 0-1.75.786-2.754 2.18-2.754 1.395 0 2.181 1.004 2.181 2.754 0 1.744-.786 2.755-2.18 2.755zm5.244.93h1.175v-4.566c0-1.039.746-1.873 1.709-1.873.93 0 1.539.56 1.539 1.435V197h1.175v-4.737c0-.937.684-1.702 1.709-1.702 1.039 0 1.552.533 1.552 1.62V197h1.176v-5.093c0-1.545-.841-2.406-2.345-2.406-1.018 0-1.859.513-2.256 1.292h-.109c-.342-.766-1.039-1.292-2.037-1.292-.985 0-1.723.472-2.058 1.292h-.109v-1.162h-1.121V197zm12.181 0h1.176v-4.566c0-1.039.745-1.873 1.709-1.873.93 0 1.538.56 1.538 1.435V197h1.176v-4.737c0-.937.684-1.702 1.709-1.702 1.039 0 1.552.533 1.552 1.62V197h1.175v-5.093c0-1.545-.84-2.406-2.344-2.406-1.019 0-1.86.513-2.256 1.292h-.11c-.341-.766-1.039-1.292-2.037-1.292-.984 0-1.722.472-2.057 1.292h-.11v-1.162h-1.121V197zm15.121-6.46c1.169 0 1.949.861 1.976 2.167h-4.061c.089-1.306.91-2.167 2.085-2.167zm1.942 4.553c-.308.649-.95.998-1.901.998-1.251 0-2.064-.923-2.126-2.379v-.055h5.298v-.451c0-2.29-1.21-3.705-3.199-3.705-2.023 0-3.322 1.504-3.322 3.821 0 2.331 1.278 3.808 3.322 3.808 1.613 0 2.762-.779 3.104-2.037h-1.176zm3.117 1.907h1.176v-4.361c0-1.292.759-2.078 1.934-2.078 1.176 0 1.737.628 1.737 1.955V197h1.175v-4.771c0-1.75-.922-2.728-2.577-2.728-1.128 0-1.845.478-2.215 1.292h-.109v-1.162h-1.121V197zm10.903.13c1.019 0 1.894-.485 2.359-1.306h.109V197h1.121v-10.295h-1.176v4.088h-.102c-.417-.807-1.285-1.292-2.311-1.292-1.873 0-3.096 1.504-3.096 3.814 0 2.318 1.21 3.815 3.096 3.815zm.274-6.569c1.333 0 2.167 1.066 2.167 2.754 0 1.703-.827 2.755-2.167 2.755-1.347 0-2.154-1.032-2.154-2.755 0-1.715.814-2.754 2.154-2.754zm8.538-.021c1.169 0 1.948.861 1.975 2.167h-4.06c.089-1.306.909-2.167 2.085-2.167zm1.941 4.553c-.307.649-.95.998-1.9.998-1.251 0-2.065-.923-2.126-2.379v-.055h5.298v-.451c0-2.29-1.21-3.705-3.199-3.705-2.024 0-3.323 1.504-3.323 3.821 0 2.331 1.279 3.808 3.323 3.808 1.613 0 2.761-.779 3.103-2.037h-1.176zm5.845 2.037c1.019 0 1.894-.485 2.358-1.306h.11V197h1.121v-10.295h-1.176v4.088h-.102c-.417-.807-1.286-1.292-2.311-1.292-1.873 0-3.097 1.504-3.097 3.814 0 2.318 1.21 3.815 3.097 3.815zm.273-6.569c1.333 0 2.167 1.066 2.167 2.754 0 1.703-.827 2.755-2.167 2.755-1.346 0-2.153-1.032-2.153-2.755 0-1.715.814-2.754 2.153-2.754zm13.214 6.569c1.866 0 3.09-1.511 3.09-3.815 0-2.317-1.217-3.814-3.09-3.814-1.011 0-1.907.499-2.31 1.292h-.11v-4.088h-1.175V197h1.121v-1.176h.109c.465.821 1.34 1.306 2.365 1.306zm-.273-6.569c1.347 0 2.146 1.032 2.146 2.754 0 1.723-.799 2.755-2.146 2.755-1.34 0-2.174-1.052-2.174-2.755 0-1.702.834-2.754 2.174-2.754zm11.17-.93h-1.176v4.361c0 1.292-.711 2.065-2.01 2.065-1.176 0-1.668-.616-1.668-1.942v-4.484h-1.176v4.771c0 1.744.862 2.728 2.516 2.728 1.128 0 1.914-.465 2.283-1.285h.11V197h1.121v-7.369zm2.844 10.035c1.305 0 1.893-.506 2.522-2.215l2.878-7.82h-1.251l-2.017 6.063h-.109l-2.023-6.063h-1.272l2.728 7.376-.137.437c-.308.889-.677 1.21-1.354 1.21-.164 0-.348-.007-.492-.034v1.005c.164.027.369.041.527.041zm9.638-9.126c1.169 0 1.948.861 1.976 2.167h-4.061c.089-1.306.909-2.167 2.085-2.167zm1.942 4.553c-.308.649-.951.998-1.901.998-1.251 0-2.064-.923-2.126-2.379v-.055h5.298v-.451c0-2.29-1.21-3.705-3.199-3.705-2.024 0-3.322 1.504-3.322 3.821 0 2.331 1.278 3.808 3.322 3.808 1.613 0 2.762-.779 3.103-2.037h-1.175zm3.117 1.907h1.176v-4.566c0-1.039.813-1.791 1.934-1.791.233 0 .656.041.752.068v-1.176a5.155 5.155 0 0 0-.588-.034c-.977 0-1.825.506-2.044 1.224h-.109v-1.094h-1.121V197zm5.414.068a.888.888 0 1 0 0-1.777.892.892 0 0 0-.889.889c0 .485.403.888.889.888zM29.786 216.423c.13 1.702 1.572 2.809 3.664 2.809 2.256 0 3.685-1.155 3.685-2.966 0-1.45-.82-2.243-2.864-2.755l-1.033-.274c-1.36-.348-1.9-.793-1.9-1.565 0-.998.868-1.654 2.18-1.654 1.231 0 2.065.601 2.236 1.613h1.237c-.102-1.593-1.524-2.728-3.431-2.728-2.085 0-3.487 1.135-3.487 2.81 0 1.401.773 2.208 2.557 2.659l1.264.328c1.36.342 1.976.875 1.976 1.716 0 .978-.977 1.695-2.304 1.695-1.401 0-2.385-.656-2.536-1.688h-1.244zM39.062 219h1.176v-7.369h-1.175V219zm.588-8.791c.452 0 .82-.369.82-.82a.823.823 0 0 0-.82-.821c-.45 0-.82.37-.82.821 0 .451.37.82.82.82zM42.48 219h1.176v-4.361c0-1.292.759-2.078 1.935-2.078 1.176 0 1.736.628 1.736 1.955V219h1.176v-4.771c0-1.75-.923-2.728-2.577-2.728-1.128 0-1.846.478-2.215 1.292h-.11v-1.162h-1.12V219zm14.274-5.113c-.205-1.313-1.299-2.386-3.09-2.386-2.064 0-3.377 1.49-3.377 3.787 0 2.345 1.32 3.842 3.384 3.842 1.77 0 2.871-.998 3.083-2.352h-1.19c-.218.834-.909 1.292-1.9 1.292-1.312 0-2.16-1.08-2.16-2.782 0-1.668.834-2.727 2.16-2.727 1.06 0 1.709.594 1.9 1.326h1.19zm4.676-1.347c1.169 0 1.948.861 1.975 2.167h-4.06c.089-1.306.909-2.167 2.085-2.167zm1.941 4.553c-.308.649-.95.998-1.9.998-1.251 0-2.065-.923-2.126-2.379v-.055h5.298v-.451c0-2.29-1.21-3.705-3.2-3.705-2.023 0-3.322 1.504-3.322 3.821 0 2.331 1.278 3.808 3.322 3.808 1.614 0 2.762-.779 3.104-2.037H63.37zM66.488 219h1.176v-4.566c0-1.039.814-1.791 1.935-1.791.232 0 .656.041.752.068v-1.176a5.167 5.167 0 0 0-.588-.034c-.978 0-1.826.506-2.044 1.224h-.11v-1.094h-1.12V219zm8.067-6.46c1.169 0 1.948.861 1.975 2.167h-4.06c.089-1.306.909-2.167 2.085-2.167zm1.941 4.553c-.307.649-.95.998-1.9.998-1.251 0-2.065-.923-2.126-2.379v-.055h5.298v-.451c0-2.29-1.21-3.705-3.2-3.705-2.023 0-3.322 1.504-3.322 3.821 0 2.331 1.278 3.808 3.322 3.808 1.614 0 2.762-.779 3.104-2.037h-1.176zm9.338 1.005c-.855 0-1.49-.438-1.49-1.19 0-.738.492-1.128 1.613-1.203l1.983-.13v.677c0 1.053-.896 1.846-2.106 1.846zm-.219 1.032c.985 0 1.791-.431 2.27-1.217h.11V219h1.12v-5.045c0-1.531-1.005-2.454-2.802-2.454-1.573 0-2.735.779-2.892 1.962h1.19c.163-.581.779-.916 1.66-.916 1.101 0 1.668.499 1.668 1.408v.67l-2.125.13c-1.716.102-2.687.861-2.687 2.181 0 1.346 1.06 2.194 2.488 2.194zm5.674-.13h1.176v-4.361c0-1.292.759-2.078 1.934-2.078 1.176 0 1.737.628 1.737 1.955V219h1.175v-4.771c0-1.75-.922-2.728-2.577-2.728-1.128 0-1.845.478-2.215 1.292h-.109v-1.162h-1.12V219zm10.903.13c1.019 0 1.894-.485 2.359-1.306h.109V219h1.121v-10.295h-1.176v4.088h-.102c-.417-.807-1.285-1.292-2.311-1.292-1.873 0-3.096 1.504-3.096 3.814 0 2.318 1.21 3.815 3.096 3.815zm.274-6.569c1.333 0 2.167 1.066 2.167 2.754 0 1.703-.827 2.755-2.167 2.755-1.347 0-2.154-1.032-2.154-2.755 0-1.715.814-2.754 2.154-2.754zm13.138-1.06c-1.004 0-1.886.513-2.358 1.36h-.109v-1.23h-1.121v9.83h1.175v-3.568h.11c.403.779 1.251 1.237 2.303 1.237 1.874 0 3.097-1.511 3.097-3.815 0-2.317-1.217-3.814-3.097-3.814zm-.28 6.569c-1.326 0-2.167-1.066-2.167-2.755 0-1.695.841-2.754 2.174-2.754 1.347 0 2.153 1.032 2.153 2.754 0 1.723-.806 2.755-2.16 2.755zm11.184-6.439h-1.176v4.361c0 1.292-.711 2.065-2.01 2.065-1.176 0-1.668-.616-1.668-1.942v-4.484h-1.175v4.771c0 1.744.861 2.728 2.515 2.728 1.128 0 1.914-.465 2.283-1.285h.11V219h1.121v-7.369zm2.215 7.369h1.175v-4.361c0-1.292.759-2.078 1.935-2.078 1.176 0 1.736.628 1.736 1.955V219h1.176v-4.771c0-1.75-.923-2.728-2.577-2.728-1.128 0-1.846.478-2.215 1.292h-.109v-1.162h-1.121V219zm14.273-5.113c-.205-1.313-1.299-2.386-3.09-2.386-2.064 0-3.377 1.49-3.377 3.787 0 2.345 1.32 3.842 3.384 3.842 1.771 0 2.871-.998 3.083-2.352h-1.189c-.219.834-.91 1.292-1.901 1.292-1.312 0-2.16-1.08-2.16-2.782 0-1.668.834-2.727 2.16-2.727 1.06 0 1.709.594 1.901 1.326h1.189zm2.365-4.163v1.907h-1.189v.984h1.189v4.471c0 1.408.609 1.969 2.126 1.969.233 0 .458-.028.691-.069v-.991a4.85 4.85 0 0 1-.547.027c-.766 0-1.094-.369-1.094-1.237v-4.17h1.641v-.984h-1.641v-1.907h-1.176zm10.555 1.907h-1.176v4.361c0 1.292-.711 2.065-2.01 2.065-1.175 0-1.668-.616-1.668-1.942v-4.484h-1.175v4.771c0 1.744.861 2.728 2.515 2.728 1.128 0 1.914-.465 2.284-1.285h.109V219h1.121v-7.369zm4.484 6.467c-.854 0-1.49-.438-1.49-1.19 0-.738.492-1.128 1.613-1.203l1.983-.13v.677c0 1.053-.896 1.846-2.106 1.846zm-.218 1.032c.984 0 1.791-.431 2.269-1.217h.11V219h1.121v-5.045c0-1.531-1.005-2.454-2.803-2.454-1.572 0-2.734.779-2.892 1.962h1.19c.164-.581.779-.916 1.661-.916 1.1 0 1.668.499 1.668 1.408v.67l-2.126.13c-1.716.102-2.687.861-2.687 2.181 0 1.346 1.06 2.194 2.489 2.194zm5.742-.13h1.176v-10.295h-1.176V219zm11.074.13c1.866 0 3.09-1.511 3.09-3.815 0-2.317-1.217-3.814-3.09-3.814-1.012 0-1.907.499-2.31 1.292h-.11v-4.088h-1.176V219h1.121v-1.176h.11c.465.821 1.34 1.306 2.365 1.306zm-.273-6.569c1.346 0 2.146 1.032 2.146 2.754 0 1.723-.8 2.755-2.146 2.755-1.34 0-2.174-1.052-2.174-2.755 0-1.702.834-2.754 2.174-2.754zm11.17-.93h-1.176v4.361c0 1.292-.711 2.065-2.01 2.065-1.176 0-1.668-.616-1.668-1.942v-4.484h-1.176v4.771c0 1.744.862 2.728 2.516 2.728 1.128 0 1.914-.465 2.283-1.285h.109V219h1.122v-7.369zm2.843 10.035c1.306 0 1.894-.506 2.523-2.215l2.878-7.82h-1.251l-2.017 6.063h-.109l-2.024-6.063h-1.271l2.727 7.376-.136.437c-.308.889-.677 1.21-1.354 1.21a2.86 2.86 0 0 1-.492-.034v1.005c.164.027.369.041.526.041zm9.639-9.126c1.169 0 1.948.861 1.976 2.167h-4.061c.089-1.306.909-2.167 2.085-2.167zm1.941 4.553c-.307.649-.95.998-1.9.998-1.251 0-2.064-.923-2.126-2.379v-.055h5.298v-.451c0-2.29-1.21-3.705-3.199-3.705-2.024 0-3.323 1.504-3.323 3.821 0 2.331 1.279 3.808 3.323 3.808 1.613 0 2.761-.779 3.103-2.037h-1.176zm3.118 1.907h1.175v-4.566c0-1.039.814-1.791 1.935-1.791.232 0 .656.041.752.068v-1.176a5.183 5.183 0 0 0-.588-.034c-.978 0-1.825.506-2.044 1.224h-.109v-1.094h-1.121V219zm5.414.068a.89.89 0 0 0 .888-.888.887.887 0 0 0-.888-.889.892.892 0 0 0-.889.889c0 .485.403.888.889.888zm-174.522 43.03c-.854 0-1.49-.438-1.49-1.19 0-.738.492-1.128 1.613-1.203l1.983-.13v.677c0 1.053-.896 1.846-2.106 1.846zm-.219 1.032c.985 0 1.791-.431 2.27-1.217h.11V263h1.12v-5.045c0-1.531-1.005-2.454-2.802-2.454-1.573 0-2.735.779-2.892 1.962h1.19c.164-.581.779-.916 1.66-.916 1.101 0 1.669.499 1.669 1.408v.67l-2.126.13c-1.716.102-2.687.861-2.687 2.181 0 1.346 1.06 2.194 2.488 2.194zm9.625-.13h1.176v-4.566c0-1.039.745-1.873 1.71-1.873.929 0 1.537.56 1.537 1.435V263h1.176v-4.737c0-.937.684-1.702 1.709-1.702 1.04 0 1.552.533 1.552 1.62V263h1.175v-5.093c0-1.545-.84-2.406-2.344-2.406-1.019 0-1.86.513-2.256 1.292h-.11c-.341-.766-1.038-1.292-2.036-1.292-.985 0-1.723.472-2.058 1.292h-.11v-1.162h-1.12V263zm15.21.13c2.099 0 3.398-1.449 3.398-3.815 0-2.372-1.299-3.814-3.398-3.814-2.098 0-3.397 1.442-3.397 3.814 0 2.366 1.299 3.815 3.397 3.815zm0-1.06c-1.394 0-2.18-1.011-2.18-2.755 0-1.75.786-2.754 2.18-2.754 1.395 0 2.181 1.004 2.181 2.754 0 1.744-.786 2.755-2.18 2.755zm5.243.93h1.176v-4.361c0-1.292.76-2.078 1.935-2.078 1.176 0 1.736.628 1.736 1.955V263h1.176v-4.771c0-1.75-.923-2.728-2.577-2.728-1.128 0-1.846.478-2.215 1.292h-.11v-1.162h-1.12V263zm8.669-9.276v1.907h-1.19v.984h1.19v4.471c0 1.408.608 1.969 2.125 1.969.233 0 .459-.028.69-.069v-.991a4.847 4.847 0 0 1-.546.027c-.766 0-1.094-.369-1.094-1.237v-4.17h1.64v-.984h-1.64v-1.907h-1.175zM79.518 263h1.175v-4.361c0-1.244.725-2.078 2.044-2.078 1.115 0 1.703.649 1.703 1.955V263h1.175v-4.771c0-1.73-.984-2.728-2.543-2.728-1.128 0-1.9.478-2.27 1.292h-.109v-4.088h-1.175V263zm14.464-.902c-.854 0-1.49-.438-1.49-1.19 0-.738.492-1.128 1.614-1.203l1.982-.13v.677c0 1.053-.896 1.846-2.106 1.846zm-.218 1.032c.984 0 1.79-.431 2.27-1.217h.109V263h1.12v-5.045c0-1.531-1.004-2.454-2.802-2.454-1.572 0-2.734.779-2.892 1.962h1.19c.164-.581.78-.916 1.66-.916 1.102 0 1.669.499 1.669 1.408v.67l-2.126.13c-1.716.102-2.687.861-2.687 2.181 0 1.346 1.06 2.194 2.489 2.194zm8.654-1.278c-1.367 0-2.133-1.04-2.133-2.646 0-1.606.766-2.645 2.133-2.645 1.36 0 2.187 1.039 2.187 2.645s-.82 2.646-2.187 2.646zm.055 3.978c2.009 0 3.281-1.053 3.281-2.7v-7.499h-1.121v1.169h-.11c-.423-.793-1.333-1.299-2.365-1.299-1.893 0-3.09 1.497-3.09 3.705s1.183 3.685 3.09 3.685c1.012 0 1.846-.458 2.311-1.272h.109v1.449c0 1.087-.786 1.737-2.105 1.737-1.06 0-1.716-.39-1.846-.992h-1.244c.178 1.217 1.312 2.017 3.09 2.017zm8.524-2.7c2.099 0 3.398-1.449 3.398-3.815 0-2.372-1.299-3.814-3.398-3.814s-3.397 1.442-3.397 3.814c0 2.366 1.298 3.815 3.397 3.815zm0-1.06c-1.394 0-2.181-1.011-2.181-2.755 0-1.75.787-2.754 2.181-2.754 1.395 0 2.181 1.004 2.181 2.754 0 1.744-.786 2.755-2.181 2.755z"/>
    <path fill="#E9E9E9" d="M113.967 44.555l-1.639 7.098A1.098 1.098 0 0 0 113.4 53c.212 0 .426-.062.61-.185l5.99-3.993 5.99 3.993a1.1 1.1 0 0 0 1.668-1.217l-2.012-7.04 4.99-4.49a1.1 1.1 0 0 0-.649-1.914l-6.271-.499-2.714-6.007a1.098 1.098 0 0 0-2.004 0l-2.714 6.007-6.271.498a1.1 1.1 0 1 0-.681 1.884l4.635 4.518zm3.139-4.758c.399-.032.751-.279.915-.645L120 34.773l1.979 4.38c.164.365.516.612.915.644l4.369.346-3.598 3.239a1.104 1.104 0 0 0-.322 1.12l1.378 4.823-4.109-2.74a1.095 1.095 0 0 0-1.22 0l-4.295 2.863 1.155-5a1.099 1.099 0 0 0-.303-1.035l-3.342-3.258 4.499-.358zM143.967 44.555l-1.639 7.098A1.098 1.098 0 0 0 143.4 53c.212 0 .426-.062.61-.185l5.99-3.993 5.99 3.993a1.1 1.1 0 0 0 1.668-1.217l-2.012-7.04 4.99-4.49a1.1 1.1 0 0 0-.649-1.914l-6.271-.499-2.714-6.007a1.098 1.098 0 0 0-2.004 0l-2.714 6.007-6.271.498a1.1 1.1 0 1 0-.681 1.884l4.635 4.518zm3.139-4.758c.399-.032.751-.279.915-.645L150 34.773l1.979 4.38c.164.365.516.612.915.644l4.369.346-3.598 3.239a1.104 1.104 0 0 0-.322 1.12l1.378 4.823-4.109-2.74a1.095 1.095 0 0 0-1.22 0l-4.295 2.863 1.155-5a1.099 1.099 0 0 0-.303-1.035l-3.342-3.258 4.499-.358zM173.967 44.555l-1.639 7.098A1.098 1.098 0 0 0 173.4 53c.212 0 .426-.062.61-.185l5.99-3.993 5.99 3.993a1.1 1.1 0 0 0 1.668-1.217l-2.012-7.04 4.99-4.49a1.1 1.1 0 0 0-.649-1.914l-6.271-.499-2.714-6.007a1.098 1.098 0 0 0-2.004 0l-2.714 6.007-6.271.498a1.1 1.1 0 1 0-.681 1.884l4.635 4.518zm3.139-4.758c.399-.032.751-.279.915-.645L180 34.773l1.979 4.38c.164.365.516.612.915.644l4.369.346-3.598 3.239a1.104 1.104 0 0 0-.322 1.12l1.378 4.823-4.109-2.74a1.095 1.095 0 0 0-1.22 0l-4.295 2.863 1.155-5a1.099 1.099 0 0 0-.303-1.035l-3.342-3.258 4.499-.358zM203.967 44.555l-1.639 7.098A1.098 1.098 0 0 0 203.4 53c.212 0 .426-.062.61-.185l5.99-3.993 5.99 3.993a1.1 1.1 0 0 0 1.668-1.217l-2.012-7.04 4.99-4.49a1.1 1.1 0 0 0-.649-1.914l-6.271-.499-2.714-6.007a1.098 1.098 0 0 0-2.004 0l-2.714 6.007-6.271.498a1.1 1.1 0 1 0-.681 1.884l4.635 4.518zm3.139-4.758c.399-.032.751-.279.915-.645L210 34.773l1.979 4.38c.164.365.516.612.915.644l4.369.346-3.598 3.239a1.104 1.104 0 0 0-.322 1.12l1.378 4.823-4.109-2.74a1.095 1.095 0 0 0-1.22 0l-4.295 2.863 1.155-5a1.099 1.099 0 0 0-.303-1.035l-3.342-3.258 4.499-.358z"/>
    <path fill="#CCC" d="M236.418 43.484c0 2.116.539 3.826 1.664 5.315h.856c-.838-1.067-1.483-3.322-1.483-5.315 0-1.98.65-4.242 1.483-5.308h-.856c-1.125 1.488-1.664 3.199-1.664 5.308zM242.547 47h1.055v-8.455h-1.049l-2.25 1.617v1.113l2.15-1.558h.094V47zm5.801-3.51c0-2.115-.539-3.826-1.664-5.314h-.856c.838 1.066 1.483 3.322 1.483 5.314 0 1.98-.651 4.242-1.483 5.309h.856c1.125-1.489 1.664-3.2 1.664-5.309z"/>
    <path fill="#FFD873" d="M82.328 51.653l1.64-7.098-4.636-4.517a1.1 1.1 0 0 1 .68-1.885l6.272-.498 2.714-6.007a1.098 1.098 0 0 1 2.004 0l2.714 6.007 6.271.5a1.1 1.1 0 0 1 .649 1.914l-4.99 4.49 2.012 7.04a1.101 1.101 0 0 1-1.668 1.216L90 48.822l-5.99 3.993a1.1 1.1 0 0 1-1.682-1.162zM328.328 135.653l1.639-7.098-4.635-4.517a1.1 1.1 0 0 1 .681-1.885l6.271-.498 2.714-6.007a1.098 1.098 0 0 1 2.004 0l2.714 6.007 6.271.499a1.099 1.099 0 1 1 .649 1.914l-4.99 4.491 2.012 7.04a1.1 1.1 0 0 1-1.668 1.216l-5.99-3.993-5.99 3.993a1.1 1.1 0 0 1-1.682-1.162z"/>
    <path fill="#000" d="M288.592 133.352c3.076 0 5.137-2.022 5.137-4.981 0-2.832-1.954-4.639-4.366-4.639-1.435 0-2.47.498-3.095 1.368h-.166l.39-4.073h6.485v-2.119h-8.448l-.771 8.203h2.285c.478-.908 1.406-1.465 2.607-1.465 1.553 0 2.647 1.114 2.647 2.774 0 1.699-1.094 2.832-2.715 2.832-1.436 0-2.52-.85-2.676-2.158h-2.353c.107 2.48 2.129 4.258 5.039 4.258zm8.906-.147c.928 0 1.563-.664 1.563-1.543 0-.889-.635-1.543-1.563-1.543-.918 0-1.562.654-1.562 1.543 0 .879.644 1.543 1.562 1.543zm9.063.147c3.369 0 5.371-2.735 5.371-7.393 0-4.678-2.032-7.402-5.371-7.402-3.35 0-5.381 2.724-5.381 7.382 0 4.678 2.002 7.413 5.381 7.413zm0-2.09c-1.788 0-2.832-1.826-2.832-5.323 0-3.466 1.064-5.283 2.832-5.283 1.767 0 2.822 1.807 2.822 5.283 0 3.497-1.035 5.323-2.822 5.323zM31.873 50h2.52V35.908h-2.51L28.2 38.486v2.422l3.506-2.46h.166V50zm7.812.205c.928 0 1.563-.664 1.563-1.543 0-.889-.635-1.543-1.563-1.543-.917 0-1.562.654-1.562 1.543 0 .879.645 1.543 1.563 1.543zm9.063.147c3.37 0 5.371-2.735 5.371-7.393 0-4.678-2.031-7.402-5.371-7.402-3.35 0-5.38 2.724-5.38 7.383 0 4.677 2.001 7.412 5.38 7.412zm0-2.09c-1.787 0-2.832-1.827-2.832-5.322 0-3.467 1.065-5.284 2.832-5.284 1.768 0 2.822 1.807 2.822 5.284 0 3.495-1.035 5.322-2.822 5.322zM289.953 49h1.406V37.727h-1.398l-3 2.156v1.484l2.867-2.078h.125V49zm9.297 0h1.344v-5.219c0-1.187.929-2.047 2.211-2.047.265 0 .75.047.859.078V40.47a5.757 5.757 0 0 0-.672-.04c-1.117 0-2.086.579-2.336 1.4h-.125v-1.25h-1.281V49zm9.219-7.383c1.336 0 2.226.985 2.258 2.477h-4.641c.102-1.492 1.039-2.477 2.383-2.477zm2.219 5.203c-.352.742-1.086 1.14-2.172 1.14-1.43 0-2.36-1.054-2.43-2.718v-.062h6.055v-.516c0-2.617-1.383-4.234-3.657-4.234-2.312 0-3.796 1.718-3.796 4.367 0 2.664 1.46 4.351 3.796 4.351 1.844 0 3.157-.89 3.547-2.328h-1.343zm10.281-6.242h-1.438l-2.304 6.938h-.125l-2.305-6.938h-1.438L316.477 49h1.375l3.117-8.422zM322.797 49h1.344v-8.422h-1.344V49zm.672-10.047a.94.94 0 0 0 .937-.937.94.94 0 0 0-.937-.938.94.94 0 0 0-.938.938.94.94 0 0 0 .938.937zm6.593 2.664c1.336 0 2.227.985 2.258 2.477h-4.64c.101-1.492 1.039-2.477 2.382-2.477zm2.219 5.203c-.351.742-1.086 1.14-2.172 1.14-1.429 0-2.359-1.054-2.429-2.718v-.062h6.054v-.516c0-2.617-1.382-4.234-3.656-4.234-2.312 0-3.797 1.718-3.797 4.367 0 2.664 1.461 4.351 3.797 4.351 1.844 0 3.156-.89 3.547-2.328h-1.344zm14.157-6.242h-1.352l-1.656 6.734h-.125l-1.883-6.734h-1.289l-1.883 6.734h-.125l-1.656-6.734h-1.36l2.36 8.422h1.359l1.875-6.516h.125L342.711 49h1.367l2.36-8.422z"/>
    <defs>
        <filter id="a" width="375" height="216" x="0" y="83" color-interpolation-filters="sRGB" filterUnits="userSpaceOnUse">
            <feFlood flood-opacity="0" result="BackgroundImageFix"/>
            <feColorMatrix in="SourceAlpha" values="0 0 0 0 0 0 0 0 0 0 0 0 0 0 0 0 0 0 127 0"/>
            <feOffset dy="4"/>
            <feGaussianBlur stdDeviation="2"/>
            <feColorMatrix values="0 0 0 0 0.8 0 0 0 0 0.8 0 0 0 0 0.8 0 0 0 0.25 0"/>
            <feBlend in2="BackgroundImageFix" result="effect1_dropShadow"/>
            <feBlend in="SourceGraphic" in2="effect1_dropShadow" result="shape"/>
        </filter>
        <filter id="b" width="375" height="91" x="0" y="0" color-interpolation-filters="sRGB" filterUnits="userSpaceOnUse">
            <feFlood flood-opacity="0" result="BackgroundImageFix"/>
            <feColorMatrix in="SourceAlpha" values="0 0 0 0 0 0 0 0 0 0 0 0 0 0 0 0 0 0 127 0"/>
            <feOffset dy="4"/>
            <feGaussianBlur stdDeviation="2"/>
            <feColorMatrix values="0 0 0 0 0.8 0 0 0 0 0.8 0 0 0 0 0.8 0 0 0 0.25 0"/>
            <feBlend in2="BackgroundImageFix" result="effect1_dropShadow"/>
            <feBlend in="SourceGraphic" in2="effect1_dropShadow" result="shape"/>
        </filter>
    </defs>
</svg>
