<svg xmlns="http://www.w3.org/2000/svg" width="375" height="196" fill="none" viewBox="0 0 375 196">
    <rect width="367" height="188" x="4" fill="#fff" filter="url(#a)" rx="10"/>
    <path fill="#000" d="M102.898 46h2.016V34.727h-2.008l-2.945 2.062v1.938l2.805-1.97h.132V46zm7.813-5.016h1.414c1.391 0 2.234.688 2.234 1.797 0 1.078-.914 1.805-2.211 1.805-1.304 0-2.187-.664-2.273-1.703h-1.93c.094 2.054 1.774 3.398 4.227 3.398 2.437 0 4.25-1.406 4.25-3.351 0-1.532-.961-2.524-2.492-2.758v-.133c1.195-.312 2.047-1.219 2.054-2.578.008-1.625-1.343-3.016-3.742-3.016-2.445 0-3.976 1.383-4.078 3.375h1.891c.086-1.11.851-1.734 2.078-1.734 1.195 0 1.906.727 1.906 1.648 0 1.008-.797 1.711-1.953 1.711h-1.375v1.54zM123.812 46h1.93v-2.148h1.524v-1.704h-1.524v-7.421h-2.844a146.234 146.234 0 0 0-4.593 7.445v1.68h5.507V46zm-3.64-3.914a120.914 120.914 0 0 1 3.562-5.719h.11v5.828h-3.672v-.11zm13.117 4.187c2.867 0 4.57-2.242 4.57-6.039 0-3.726-1.812-5.789-4.507-5.789-2.454 0-4.188 1.649-4.188 3.961 0 2.164 1.563 3.742 3.711 3.742 1.32 0 2.391-.609 2.922-1.68h.133c-.024 2.61-.969 4.118-2.618 4.118-.968 0-1.742-.523-1.984-1.367h-2.008c.328 1.843 1.907 3.054 3.969 3.054zm.07-5.718c-1.312 0-2.218-.907-2.218-2.211 0-1.258.953-2.219 2.226-2.219 1.274 0 2.227.977 2.227 2.258 0 1.258-.93 2.172-2.235 2.172zm10.868 5.726c2.601 0 4.382-1.343 4.382-3.304 0-1.454-.968-2.594-2.437-2.868v-.132c1.211-.305 1.976-1.266 1.976-2.477 0-1.781-1.625-3.055-3.914-3.055s-3.922 1.274-3.922 3.055c0 1.203.782 2.18 1.985 2.477v.132c-1.477.313-2.438 1.446-2.438 2.875 0 1.953 1.782 3.297 4.368 3.297zm.007-1.57c-1.359 0-2.296-.773-2.296-1.898 0-1.126.937-1.899 2.296-1.899 1.352 0 2.289.773 2.289 1.898 0 1.126-.929 1.899-2.289 1.899zm0-5.344c-1.148 0-1.937-.68-1.937-1.672 0-1.008.781-1.703 1.937-1.703 1.149 0 1.93.696 1.93 1.703 0 .992-.789 1.672-1.93 1.672zm10.664 6.914c2.696 0 4.297-2.187 4.297-5.914 0-3.742-1.625-5.922-4.297-5.922-2.679 0-4.304 2.18-4.304 5.907 0 3.742 1.601 5.93 4.304 5.93zm0-1.672c-1.429 0-2.265-1.46-2.265-4.257 0-2.774.851-4.227 2.265-4.227 1.414 0 2.258 1.445 2.258 4.227 0 2.796-.828 4.257-2.258 4.257zm-50.531 11.82c-1.148 0-2.156.587-2.695 1.555h-.125v-1.406h-1.281v11.234h1.343v-4.078h.125c.461.891 1.43 1.414 2.633 1.414 2.141 0 3.539-1.726 3.539-4.359 0-2.648-1.39-4.36-3.539-4.36zm-.32 7.508c-1.516 0-2.477-1.218-2.477-3.148 0-1.937.961-3.148 2.485-3.148 1.539 0 2.461 1.18 2.461 3.148 0 1.969-.922 3.148-2.469 3.148zm9.328-6.32c1.336 0 2.227.985 2.258 2.477h-4.641c.102-1.492 1.039-2.477 2.383-2.477zm2.219 5.203c-.352.742-1.086 1.14-2.172 1.14-1.43 0-2.36-1.054-2.43-2.718v-.062h6.055v-.516c0-2.617-1.383-4.234-3.656-4.234-2.313 0-3.797 1.718-3.797 4.367 0 2.664 1.461 4.351 3.797 4.351 1.843 0 3.156-.89 3.547-2.328h-1.344zm7.023 2.328c2.399 0 3.883-1.656 3.883-4.359 0-2.71-1.484-4.36-3.883-4.36-2.398 0-3.883 1.65-3.883 4.36 0 2.703 1.485 4.36 3.883 4.36zm0-1.21c-1.594 0-2.492-1.157-2.492-3.149 0-2 .898-3.148 2.492-3.148 1.594 0 2.492 1.148 2.492 3.148 0 1.992-.898 3.148-2.492 3.148zm10.094-7.508c-1.149 0-2.156.586-2.695 1.554h-.125v-1.406h-1.282v11.234h1.344v-4.078h.125c.461.891 1.43 1.414 2.633 1.414 2.141 0 3.539-1.726 3.539-4.359 0-2.648-1.391-4.36-3.539-4.36zm-.32 7.508c-1.516 0-2.477-1.22-2.477-3.149 0-1.937.961-3.148 2.484-3.148 1.54 0 2.461 1.18 2.461 3.148 0 1.969-.921 3.148-2.468 3.148zM138.438 65h1.343V53.234h-1.343V65zm7.312-7.383c1.336 0 2.227.985 2.258 2.477h-4.641c.102-1.492 1.039-2.477 2.383-2.477zm2.219 5.203c-.352.742-1.086 1.14-2.172 1.14-1.43 0-2.359-1.054-2.43-2.718v-.062h6.055v-.516c0-2.617-1.383-4.234-3.656-4.234-2.313 0-3.797 1.718-3.797 4.367 0 2.664 1.461 4.351 3.797 4.351 1.843 0 3.156-.89 3.546-2.328h-1.343zm14.953-6.242h-1.438l-2.304 6.938h-.125l-2.305-6.938h-1.438L158.43 65h1.375l3.117-8.422zM164.75 65h1.344v-8.422h-1.344V65zm.672-10.047a.94.94 0 0 0 .937-.937.94.94 0 0 0-.937-.938.94.94 0 0 0-.938.938.94.94 0 0 0 .938.937zm6.594 2.664c1.336 0 2.226.985 2.257 2.477h-4.64c.101-1.492 1.039-2.477 2.383-2.477zm2.218 5.203c-.351.742-1.086 1.14-2.172 1.14-1.429 0-2.359-1.054-2.429-2.718v-.062h6.055v-.516c0-2.617-1.383-4.234-3.657-4.234-2.312 0-3.797 1.718-3.797 4.367 0 2.664 1.461 4.351 3.797 4.351 1.844 0 3.157-.89 3.547-2.328h-1.344zm14.157-6.242h-1.352l-1.656 6.734h-.125l-1.883-6.734h-1.289l-1.883 6.734h-.125l-1.656-6.734h-1.36l2.36 8.422h1.359l1.875-6.516h.125L184.664 65h1.367l2.36-8.422zm4.843 1.04c1.336 0 2.227.984 2.258 2.476h-4.64c.101-1.492 1.039-2.477 2.382-2.477zm2.219 5.202c-.351.742-1.086 1.14-2.172 1.14-1.429 0-2.359-1.054-2.429-2.718v-.062h6.054v-.516c0-2.617-1.383-4.234-3.656-4.234-2.312 0-3.797 1.718-3.797 4.367 0 2.664 1.461 4.351 3.797 4.351 1.844 0 3.156-.89 3.547-2.328h-1.344zm6.68 2.328c1.164 0 2.164-.554 2.695-1.492h.125V65h1.281V53.234h-1.343v4.672h-.118c-.476-.922-1.468-1.476-2.64-1.476-2.141 0-3.539 1.718-3.539 4.36 0 2.648 1.383 4.358 3.539 4.358zm.312-7.507c1.524 0 2.477 1.218 2.477 3.148 0 1.945-.945 3.148-2.477 3.148-1.539 0-2.461-1.18-2.461-3.148 0-1.96.93-3.148 2.461-3.148zm11.633 10.406c1.492 0 2.164-.578 2.883-2.531l3.289-8.938h-1.43l-2.304 6.93h-.125l-2.313-6.93h-1.453l3.117 8.43-.156.5c-.352 1.015-.774 1.383-1.547 1.383-.187 0-.398-.008-.562-.04V68c.187.031.421.047.601.047zm11.117-2.899c2.399 0 3.883-1.656 3.883-4.359 0-2.71-1.484-4.36-3.883-4.36-2.398 0-3.883 1.65-3.883 4.36 0 2.703 1.485 4.36 3.883 4.36zm0-1.21c-1.593 0-2.492-1.157-2.492-3.149 0-2 .899-3.148 2.492-3.148 1.594 0 2.493 1.148 2.493 3.148 0 1.992-.899 3.148-2.493 3.148zM238 56.578h-1.344v4.984c0 1.477-.812 2.36-2.297 2.36-1.343 0-1.906-.703-1.906-2.219v-5.125h-1.344v5.453c0 1.992.985 3.117 2.875 3.117 1.289 0 2.188-.53 2.61-1.468h.125V65H238v-8.422zM240.531 65h1.344v-5.219c0-1.187.93-2.047 2.211-2.047.266 0 .75.047.859.078V56.47a5.757 5.757 0 0 0-.672-.04c-1.117 0-2.085.579-2.335 1.4h-.126v-1.25h-1.281V65zm14.711-8.57c-1.148 0-2.156.586-2.695 1.554h-.125v-1.406h-1.281v11.234h1.343v-4.078h.125c.461.891 1.43 1.414 2.633 1.414 2.141 0 3.539-1.726 3.539-4.359 0-2.648-1.39-4.36-3.539-4.36zm-.32 7.508c-1.516 0-2.477-1.22-2.477-3.149 0-1.937.961-3.148 2.485-3.148 1.539 0 2.461 1.18 2.461 3.148 0 1.969-.922 3.148-2.469 3.148zM260.891 65h1.343v-5.219c0-1.187.93-2.047 2.211-2.047.266 0 .75.047.86.078V56.47a5.757 5.757 0 0 0-.672-.04c-1.117 0-2.086.579-2.336 1.4h-.125v-1.25h-1.281V65zm9.32.148c2.398 0 3.883-1.656 3.883-4.359 0-2.71-1.485-4.36-3.883-4.36-2.399 0-3.883 1.65-3.883 4.36 0 2.703 1.484 4.36 3.883 4.36zm0-1.21c-1.594 0-2.492-1.157-2.492-3.149 0-2 .898-3.148 2.492-3.148 1.594 0 2.492 1.148 2.492 3.148 0 1.992-.898 3.148-2.492 3.148zM276.766 65h1.343v-7.297h1.93v-1.125h-1.93v-.898c0-.922.407-1.39 1.375-1.39a3.7 3.7 0 0 1 .633.038v-1.094a4.714 4.714 0 0 0-.906-.078c-1.602 0-2.445.805-2.445 2.485v.937h-1.399v1.125h1.399V65zm5.265 0h1.344v-8.422h-1.344V65zm.672-10.047a.94.94 0 0 0 .938-.937.94.94 0 0 0-.938-.938.94.94 0 0 0-.937.938.94.94 0 0 0 .937.937zM286.016 65h1.343V53.234h-1.343V65zm7.312-7.383c1.336 0 2.227.985 2.258 2.477h-4.641c.102-1.492 1.039-2.477 2.383-2.477zm2.219 5.203c-.352.742-1.086 1.14-2.172 1.14-1.43 0-2.359-1.054-2.43-2.718v-.062H297v-.516c0-2.617-1.383-4.234-3.656-4.234-2.313 0-3.797 1.718-3.797 4.367 0 2.664 1.461 4.351 3.797 4.351 1.844 0 3.156-.89 3.547-2.328h-1.344zm8.641-8.422v2.18h-1.36v1.125h1.36v5.11c0 1.609.695 2.25 2.429 2.25.266 0 .524-.032.789-.079v-1.132c-.25.023-.383.03-.625.03-.875 0-1.25-.421-1.25-1.413v-4.766h1.875v-1.125h-1.875v-2.18h-1.343zm8.585 10.75c2.399 0 3.883-1.656 3.883-4.359 0-2.71-1.484-4.36-3.883-4.36-2.398 0-3.882 1.65-3.882 4.36 0 2.703 1.484 4.36 3.882 4.36zm0-1.21c-1.593 0-2.492-1.157-2.492-3.149 0-2 .899-3.148 2.492-3.148 1.594 0 2.493 1.148 2.493 3.148 0 1.992-.899 3.148-2.493 3.148zm9.11 1.21c1.164 0 2.164-.554 2.695-1.492h.125V65h1.281V53.234h-1.343v4.672h-.118c-.476-.922-1.468-1.476-2.64-1.476-2.141 0-3.539 1.718-3.539 4.36 0 2.648 1.383 4.358 3.539 4.358zm.312-7.507c1.524 0 2.477 1.218 2.477 3.148 0 1.945-.945 3.148-2.477 3.148-1.539 0-2.461-1.18-2.461-3.148 0-1.96.93-3.148 2.461-3.148zm8.993 6.328c-.977 0-1.704-.5-1.704-1.36 0-.843.563-1.289 1.844-1.375l2.266-.148v.773c0 1.203-1.024 2.11-2.406 2.11zm-.25 1.18c1.124 0 2.046-.493 2.593-1.391h.125V65h1.282v-5.766c0-1.75-1.149-2.804-3.204-2.804-1.796 0-3.125.89-3.304 2.242h1.359c.188-.664.891-1.047 1.899-1.047 1.257 0 1.906.57 1.906 1.61V60l-2.43.148c-1.961.118-3.07.985-3.07 2.493 0 1.539 1.211 2.507 2.844 2.507zm6.89 2.898c1.492 0 2.164-.578 2.883-2.531L344 56.578h-1.43l-2.304 6.93h-.125l-2.313-6.93h-1.453l3.117 8.43-.156.5c-.352 1.015-.774 1.383-1.547 1.383-.187 0-.398-.008-.562-.04V68c.187.031.421.047.601.047z"/>
    <path fill="#CCC" d="M44.809 64.56a3.924 3.924 0 0 0 2.381 2.22l7.998 2.665c.401.133.815.198 1.222.198 1.451 0 2.842-.811 3.519-2.162l2.552-5.104 10.602 3.79V32.875l-27.416 9.792v13.708l1.464.523-2.207 4.414a3.906 3.906 0 0 0-.115 3.249zm6.04-6.334l7.915 2.828-2.338 4.676-7.998-2.665 2.42-4.84zm-13.016-1.851h3.917V42.667h-3.917a3.92 3.92 0 0 0-3.916 3.916v5.875a3.92 3.92 0 0 0 3.916 3.917z"/>
    <path fill="#fff" stroke="#33A0E8" stroke-width="1.3" d="M30.65 111c0-7.925 6.425-14.35 14.35-14.35h285c7.925 0 14.35 6.425 14.35 14.35v35c0 7.925-6.425 14.35-14.35 14.35H45c-7.925 0-14.35-6.425-14.35-14.35v-35z"/>
    <path fill="#33A0E8" d="M146.976 135c-.36 0-.594-.168-.702-.504l-3.852-11.556a.546.546 0 0 1-.018-.162.366.366 0 0 1 .378-.378h1.602c.156 0 .282.042.378.126a.682.682 0 0 1 .198.27l3.006 9.216 3.024-9.216a.537.537 0 0 1 .18-.27.553.553 0 0 1 .378-.126h1.62c.096 0 .18.036.252.108a.341.341 0 0 1 .126.27l-.036.162-3.834 11.556c-.12.336-.354.504-.702.504h-1.998zm8.619-10.89a.417.417 0 0 1-.306-.126.417.417 0 0 1-.126-.306v-1.314c0-.132.042-.24.126-.324a.417.417 0 0 1 .306-.126h1.656c.132 0 .24.042.324.126a.439.439 0 0 1 .126.324v1.314c0 .12-.048.222-.144.306a.417.417 0 0 1-.306.126h-1.656zm.072 10.89a.417.417 0 0 1-.306-.126.417.417 0 0 1-.126-.306v-8.496c0-.132.042-.234.126-.306a.417.417 0 0 1 .306-.126h1.53c.12 0 .222.042.306.126a.417.417 0 0 1 .126.306v8.496c0 .12-.042.222-.126.306a.417.417 0 0 1-.306.126h-1.53zm8.381.18c-1.344 0-2.412-.384-3.204-1.152-.78-.768-1.194-1.86-1.242-3.276l-.018-.45c0-1.5.39-2.682 1.17-3.546.792-.864 1.884-1.296 3.276-1.296 1.428 0 2.526.432 3.294 1.296.78.864 1.17 2.016 1.17 3.456v.378c0 .12-.042.222-.126.306a.439.439 0 0 1-.324.126h-5.976v.144c.024.672.204 1.23.54 1.674.348.432.822.648 1.422.648.684 0 1.242-.276 1.674-.828.108-.132.192-.21.252-.234.06-.036.162-.054.306-.054h1.584c.108 0 .198.03.27.09.084.06.126.144.126.252 0 .288-.174.63-.522 1.026-.336.384-.822.72-1.458 1.008-.636.288-1.374.432-2.214.432zm1.962-5.688v-.036c0-.708-.18-1.272-.54-1.692-.348-.432-.828-.648-1.44-.648s-1.092.216-1.44.648c-.348.42-.522.984-.522 1.692v.036h3.942zm6.687 5.508c-.3 0-.498-.15-.594-.45l-2.574-8.352a.546.546 0 0 1-.018-.162c0-.108.036-.198.108-.27a.341.341 0 0 1 .27-.126h1.368c.12 0 .222.036.306.108a.46.46 0 0 1 .18.234l1.746 5.922 1.854-5.868a.597.597 0 0 1 .18-.27.527.527 0 0 1 .36-.126h.918c.144 0 .258.042.342.126a.454.454 0 0 1 .18.27l1.872 5.868 1.746-5.922a.49.49 0 0 1 .162-.234.48.48 0 0 1 .324-.108h1.35c.108 0 .198.042.27.126a.341.341 0 0 1 .126.27l-.036.162-2.574 8.352a.763.763 0 0 1-.216.342c-.084.072-.204.108-.36.108h-1.188c-.312 0-.51-.15-.594-.45l-1.854-5.652-1.872 5.652c-.096.3-.3.45-.612.45h-1.17zm19.482.18c-.912 0-1.674-.138-2.286-.414-.612-.276-1.068-.594-1.368-.954-.288-.372-.432-.69-.432-.954a.39.39 0 0 1 .108-.288.43.43 0 0 1 .288-.108h1.476c.096 0 .18.048.252.144.06.048.192.162.396.342.216.18.456.324.72.432.276.096.576.144.9.144.48 0 .87-.09 1.17-.27a.91.91 0 0 0 .45-.81c0-.24-.072-.432-.216-.576-.132-.156-.378-.294-.738-.414-.348-.132-.876-.276-1.584-.432-1.02-.216-1.776-.546-2.268-.99-.48-.444-.72-1.032-.72-1.764 0-.48.144-.93.432-1.35.288-.432.714-.78 1.278-1.044.576-.276 1.26-.414 2.052-.414.816 0 1.518.132 2.106.396.588.252 1.032.558 1.332.918.312.36.468.678.468.954a.396.396 0 0 1-.126.288.366.366 0 0 1-.27.108h-1.35a.36.36 0 0 1-.306-.144 9.762 9.762 0 0 1-.414-.324c-.18-.168-.384-.3-.612-.396a2.131 2.131 0 0 0-.828-.144c-.444 0-.786.096-1.026.288a.921.921 0 0 0-.36.756c0 .216.054.396.162.54.12.144.354.282.702.414.348.12.87.246 1.566.378 2.16.42 3.24 1.362 3.24 2.826 0 .852-.372 1.542-1.116 2.07-.732.528-1.758.792-3.078.792zm10.247-.18c-1.092 0-1.914-.282-2.466-.846-.552-.576-.828-1.416-.828-2.52v-4.068h-1.422a.417.417 0 0 1-.306-.126.417.417 0 0 1-.126-.306v-1.062c0-.12.042-.222.126-.306a.417.417 0 0 1 .306-.126h1.422v-2.988c0-.132.042-.234.126-.306a.417.417 0 0 1 .306-.126h1.494c.132 0 .234.042.306.126a.381.381 0 0 1 .126.306v2.988h2.25c.12 0 .222.042.306.126a.417.417 0 0 1 .126.306v1.062c0 .12-.042.222-.126.306a.417.417 0 0 1-.306.126h-2.25v3.87c0 .516.09.906.27 1.17.18.264.474.396.882.396h1.26c.132 0 .234.042.306.126a.381.381 0 0 1 .126.306v1.134c0 .12-.042.222-.126.306a.381.381 0 0 1-.306.126h-1.476zm6.222.18c-.612 0-1.176-.12-1.692-.36a3.218 3.218 0 0 1-1.206-1.008 2.398 2.398 0 0 1-.432-1.386c0-.816.33-1.476.99-1.98.66-.504 1.566-.846 2.718-1.026l2.466-.36v-.378c0-.516-.132-.906-.396-1.17-.264-.264-.684-.396-1.26-.396-.396 0-.714.072-.954.216a3.07 3.07 0 0 0-.594.45l-.288.288c-.048.144-.138.216-.27.216h-1.404a.43.43 0 0 1-.288-.108.39.39 0 0 1-.108-.288c.012-.3.156-.636.432-1.008.288-.384.726-.714 1.314-.99.588-.288 1.314-.432 2.178-.432 1.416 0 2.448.318 3.096.954.648.636.972 1.47.972 2.502v5.652c0 .12-.042.222-.126.306a.381.381 0 0 1-.306.126h-1.494a.417.417 0 0 1-.306-.126.417.417 0 0 1-.126-.306v-.702c-.264.384-.636.702-1.116.954-.48.24-1.08.36-1.8.36zm.612-1.728c.66 0 1.2-.216 1.62-.648.42-.432.63-1.056.63-1.872v-.36l-1.8.288c-1.38.216-2.07.678-2.07 1.386 0 .384.156.684.468.9.324.204.708.306 1.152.306zM220.391 135c-1.092 0-1.914-.282-2.466-.846-.552-.576-.828-1.416-.828-2.52v-4.068h-1.422a.417.417 0 0 1-.306-.126.417.417 0 0 1-.126-.306v-1.062c0-.12.042-.222.126-.306a.417.417 0 0 1 .306-.126h1.422v-2.988c0-.132.042-.234.126-.306a.417.417 0 0 1 .306-.126h1.494c.132 0 .234.042.306.126a.381.381 0 0 1 .126.306v2.988h2.25c.12 0 .222.042.306.126a.417.417 0 0 1 .126.306v1.062c0 .12-.042.222-.126.306a.417.417 0 0 1-.306.126h-2.25v3.87c0 .516.09.906.27 1.17.18.264.474.396.882.396h1.26c.132 0 .234.042.306.126a.381.381 0 0 1 .126.306v1.134c0 .12-.042.222-.126.306a.381.381 0 0 1-.306.126h-1.476zm7.068.18c-.912 0-1.674-.138-2.286-.414-.612-.276-1.068-.594-1.368-.954-.288-.372-.432-.69-.432-.954a.39.39 0 0 1 .108-.288.43.43 0 0 1 .288-.108h1.476c.096 0 .18.048.252.144.06.048.192.162.396.342.216.18.456.324.72.432.276.096.576.144.9.144.48 0 .87-.09 1.17-.27a.91.91 0 0 0 .45-.81c0-.24-.072-.432-.216-.576-.132-.156-.378-.294-.738-.414-.348-.132-.876-.276-1.584-.432-1.02-.216-1.776-.546-2.268-.99-.48-.444-.72-1.032-.72-1.764 0-.48.144-.93.432-1.35.288-.432.714-.78 1.278-1.044.576-.276 1.26-.414 2.052-.414.816 0 1.518.132 2.106.396.588.252 1.032.558 1.332.918.312.36.468.678.468.954a.396.396 0 0 1-.126.288.366.366 0 0 1-.27.108h-1.35a.36.36 0 0 1-.306-.144 9.762 9.762 0 0 1-.414-.324c-.18-.168-.384-.3-.612-.396a2.131 2.131 0 0 0-.828-.144c-.444 0-.786.096-1.026.288a.921.921 0 0 0-.36.756c0 .216.054.396.162.54.12.144.354.282.702.414.348.12.87.246 1.566.378 2.16.42 3.24 1.362 3.24 2.826 0 .852-.372 1.542-1.116 2.07-.732.528-1.758.792-3.078.792z"/>
    <defs>
        <filter id="a" width="375" height="196" x="0" y="0" color-interpolation-filters="sRGB" filterUnits="userSpaceOnUse">
            <feFlood flood-opacity="0" result="BackgroundImageFix"/>
            <feColorMatrix in="SourceAlpha" values="0 0 0 0 0 0 0 0 0 0 0 0 0 0 0 0 0 0 127 0"/>
            <feOffset dy="4"/>
            <feGaussianBlur stdDeviation="2"/>
            <feColorMatrix values="0 0 0 0 0.8 0 0 0 0 0.8 0 0 0 0 0.8 0 0 0 0.25 0"/>
            <feBlend in2="BackgroundImageFix" result="effect1_dropShadow"/>
            <feBlend in="SourceGraphic" in2="effect1_dropShadow" result="shape"/>
        </filter>
    </defs>
</svg>
