<svg xmlns="http://www.w3.org/2000/svg" width="974" height="196" fill="none" viewBox="0 0 974 196">
    <rect width="966" height="188" x="4" fill="#fff" filter="url(#a)" rx="10"/>
    <path fill="#000" d="M39.475 39v-7.65h.109L44.936 39h1.197v-9.864h-1.217v7.677h-.11l-5.352-7.677h-1.196V39h1.217zm12.051.13c2.099 0 3.398-1.45 3.398-3.815 0-2.372-1.299-3.814-3.398-3.814-2.098 0-3.397 1.442-3.397 3.814 0 2.366 1.299 3.815 3.397 3.815zm0-1.06c-1.394 0-2.18-1.011-2.18-2.755 0-1.75.786-2.755 2.18-2.755 1.395 0 2.181 1.005 2.181 2.755 0 1.744-.786 2.755-2.18 2.755zm9.263.93h1.176V28.705h-1.176V39zm6.487.13c2.099 0 3.398-1.45 3.398-3.815 0-2.372-1.299-3.814-3.398-3.814-2.098 0-3.397 1.442-3.397 3.814 0 2.366 1.299 3.815 3.397 3.815zm0-1.06c-1.394 0-2.18-1.011-2.18-2.755 0-1.75.786-2.755 2.18-2.755 1.395 0 2.181 1.005 2.181 2.755 0 1.744-.786 2.755-2.18 2.755zm14.24-6.44h-1.183l-1.45 5.893h-.109l-1.647-5.892h-1.128l-1.647 5.892h-.11l-1.449-5.892h-1.19L73.668 39h1.19l1.64-5.701h.11L78.254 39h1.196l2.065-7.37zm5.236 7.5c1.866 0 3.09-1.51 3.09-3.815 0-2.317-1.217-3.814-3.09-3.814-1.012 0-1.907.499-2.31 1.292h-.11v-4.088h-1.176V39h1.121v-1.176h.11c.465.82 1.34 1.306 2.365 1.306zm-.273-6.57c1.346 0 2.146 1.033 2.146 2.755 0 1.723-.8 2.755-2.147 2.755-1.34 0-2.173-1.052-2.173-2.755 0-1.702.834-2.755 2.173-2.755zm7.478 5.538c-.854 0-1.49-.438-1.49-1.19 0-.738.492-1.128 1.613-1.203l1.983-.13v.677c0 1.053-.896 1.846-2.106 1.846zm-.219 1.032c.985 0 1.791-.43 2.27-1.217h.11V39h1.12v-5.045c0-1.531-1.005-2.454-2.802-2.454-1.573 0-2.735.78-2.892 1.962h1.19c.163-.581.779-.916 1.66-.916 1.101 0 1.668.499 1.668 1.408v.67l-2.126.13c-1.715.102-2.686.861-2.686 2.18 0 1.347 1.06 2.195 2.488 2.195zm5.743-.13h1.175V28.705h-1.175V39zm3.527 0h1.176V28.705h-1.176V39zm6.398-6.46c1.169 0 1.948.861 1.976 2.167h-4.061c.089-1.306.909-2.167 2.085-2.167zm1.942 4.553c-.308.65-.951.998-1.901.998-1.251 0-2.064-.923-2.126-2.38v-.054h5.298v-.45c0-2.291-1.21-3.706-3.199-3.706-2.024 0-3.322 1.504-3.322 3.821 0 2.331 1.278 3.808 3.322 3.808 1.613 0 2.762-.78 3.103-2.037h-1.175zM114.465 39h1.176v-4.566c0-1.04.813-1.791 1.934-1.791.233 0 .656.04.752.068v-1.176a5.018 5.018 0 0 0-.588-.034c-.977 0-1.825.506-2.044 1.224h-.109V31.63h-1.121V39zm5.024-5.352c0 1.066.629 1.66 2.01 1.996l1.265.307c.786.192 1.169.533 1.169 1.04 0 .676-.711 1.148-1.703 1.148-.943 0-1.531-.397-1.729-1.019h-1.21c.13 1.224 1.258 2.01 2.898 2.01 1.675 0 2.954-.91 2.954-2.229 0-1.06-.67-1.66-2.058-1.996l-1.135-.273c-.868-.212-1.278-.526-1.278-1.032 0-.657.683-1.101 1.558-1.101.889 0 1.463.39 1.621.978h1.162c-.158-1.21-1.231-1.976-2.776-1.976-1.565 0-2.748.923-2.748 2.146zM39.475 56v-7.65h.109L44.936 56h1.197v-9.864h-1.217v7.676h-.11l-5.352-7.676h-1.196V56h1.217zm12.051.13c2.099 0 3.398-1.45 3.398-3.815 0-2.372-1.299-3.814-3.398-3.814-2.098 0-3.397 1.442-3.397 3.814 0 2.366 1.299 3.815 3.397 3.815zm0-1.06c-1.394 0-2.18-1.011-2.18-2.755 0-1.75.786-2.755 2.18-2.755 1.395 0 2.181 1.005 2.181 2.755 0 1.744-.786 2.755-2.18 2.755zm9.687-8.346v1.907h-1.19v.984h1.19v4.47c0 1.41.608 1.97 2.126 1.97.232 0 .458-.028.69-.069v-.99c-.218.02-.335.026-.547.026-.765 0-1.093-.369-1.093-1.237v-4.17h1.64v-.984h-1.64v-1.907h-1.176zM65.807 56h1.175v-4.566c0-1.04.814-1.791 1.935-1.791.232 0 .656.04.752.068v-1.176a5.026 5.026 0 0 0-.588-.034c-.978 0-1.825.506-2.044 1.224h-.11V48.63h-1.12V56zm7.601-.902c-.854 0-1.49-.438-1.49-1.19 0-.738.492-1.128 1.613-1.203l1.983-.13v.677c0 1.053-.896 1.846-2.106 1.846zm-.219 1.032c.985 0 1.792-.43 2.27-1.217h.11V56h1.12v-5.045c0-1.531-1.004-2.454-2.802-2.454-1.573 0-2.735.78-2.892 1.962h1.19c.164-.581.779-.916 1.66-.916 1.101 0 1.669.499 1.669 1.408v.67l-2.126.13c-1.716.102-2.687.861-2.687 2.18 0 1.347 1.06 2.195 2.489 2.195zm8.402 0c1.018 0 1.893-.486 2.358-1.306h.11V56h1.12V45.705h-1.175v4.088H83.9c-.417-.807-1.285-1.292-2.31-1.292-1.873 0-3.097 1.504-3.097 3.814 0 2.318 1.21 3.815 3.097 3.815zm.273-6.57c1.333 0 2.167 1.067 2.167 2.755 0 1.703-.827 2.755-2.167 2.755-1.346 0-2.153-1.032-2.153-2.755 0-1.715.813-2.755 2.153-2.755zm8.538-.02c1.17 0 1.949.861 1.976 2.167h-4.06c.088-1.306.909-2.167 2.084-2.167zm1.942 4.553c-.308.65-.95.998-1.9.998-1.252 0-2.065-.923-2.127-2.38v-.054h5.298v-.45c0-2.291-1.21-3.706-3.199-3.706-2.023 0-3.322 1.504-3.322 3.821 0 2.331 1.278 3.808 3.322 3.808 1.613 0 2.762-.78 3.103-2.037h-1.175zm2.946-3.446c0 1.067.629 1.662 2.01 1.997l1.264.307c.787.192 1.17.533 1.17 1.04 0 .676-.712 1.148-1.703 1.148-.943 0-1.531-.397-1.73-1.019h-1.21c.13 1.224 1.259 2.01 2.9 2.01 1.674 0 2.952-.91 2.952-2.229 0-1.06-.67-1.66-2.057-1.996l-1.135-.273c-.868-.212-1.278-.526-1.278-1.032 0-.657.683-1.101 1.558-1.101.889 0 1.463.39 1.62.978h1.162c-.157-1.21-1.23-1.976-2.775-1.976-1.565 0-2.748.923-2.748 2.147zM39.475 73v-7.65h.109L44.936 73h1.197v-9.864h-1.217v7.676h-.11l-5.352-7.676h-1.196V73h1.217zm12.051.13c2.099 0 3.398-1.45 3.398-3.815 0-2.372-1.299-3.814-3.398-3.814-2.098 0-3.397 1.442-3.397 3.814 0 2.366 1.299 3.815 3.397 3.815zm0-1.06c-1.394 0-2.18-1.011-2.18-2.755 0-1.75.786-2.754 2.18-2.754 1.395 0 2.181 1.004 2.181 2.754 0 1.744-.786 2.755-2.18 2.755zm9.195.93h1.176v-4.361c0-1.292.758-2.078 1.934-2.078s1.736.628 1.736 1.955V73h1.176v-4.772c0-1.75-.923-2.727-2.577-2.727-1.128 0-1.846.478-2.215 1.292h-.11v-1.162h-1.12V73zm11.115-6.46c1.169 0 1.948.861 1.975 2.167h-4.06c.089-1.306.91-2.167 2.085-2.167zm1.941 4.553c-.307.65-.95.998-1.9.998-1.251 0-2.064-.923-2.126-2.38v-.054h5.298v-.45c0-2.291-1.21-3.706-3.2-3.706-2.023 0-3.322 1.504-3.322 3.821 0 2.331 1.279 3.808 3.323 3.808 1.613 0 2.761-.78 3.103-2.037h-1.176zm6.098.759c-1.367 0-2.133-1.04-2.133-2.646 0-1.606.766-2.645 2.133-2.645 1.36 0 2.188 1.039 2.188 2.645s-.82 2.646-2.188 2.646zm.055 3.978c2.01 0 3.28-1.053 3.28-2.7v-7.5h-1.12v1.17h-.11c-.423-.793-1.333-1.299-2.365-1.299-1.893 0-3.09 1.497-3.09 3.705s1.183 3.685 3.09 3.685c1.012 0 1.846-.458 2.31-1.272h.11v1.45c0 1.086-.786 1.736-2.105 1.736-1.06 0-1.716-.39-1.846-.992H76.84c.178 1.217 1.312 2.017 3.09 2.017zm8.524-2.7c2.099 0 3.398-1.45 3.398-3.815 0-2.372-1.3-3.814-3.398-3.814s-3.397 1.442-3.397 3.814c0 2.366 1.299 3.815 3.397 3.815zm0-1.06c-1.394 0-2.18-1.011-2.18-2.755 0-1.75.786-2.754 2.18-2.754 1.395 0 2.18 1.004 2.18 2.754 0 1.744-.785 2.755-2.18 2.755zm5.736-8.346v1.907H93v.984h1.19v4.47c0 1.41.608 1.97 2.125 1.97.233 0 .458-.028.69-.069v-.99c-.218.02-.334.026-.546.026-.766 0-1.094-.369-1.094-1.237v-4.17h1.64v-.984h-1.64v-1.907H94.19zM98.81 73h1.176v-7.37h-1.175V73zm.588-8.791c.452 0 .821-.37.821-.82 0-.452-.37-.82-.82-.82-.452 0-.82.368-.82.82 0 .45.368.82.82.82zm5.1 7.889c-.854 0-1.49-.438-1.49-1.19 0-.738.492-1.128 1.613-1.203l1.983-.13v.677c0 1.053-.896 1.846-2.106 1.846zm-.219 1.032c.985 0 1.791-.43 2.27-1.217h.109V73h1.121v-5.045c0-1.531-1.005-2.454-2.802-2.454-1.573 0-2.735.78-2.892 1.962h1.189c.164-.581.78-.916 1.662-.916 1.1 0 1.668.499 1.668 1.408v.67l-2.126.13c-1.716.102-2.687.861-2.687 2.18 0 1.347 1.06 2.195 2.488 2.195zm6.166-9.406v1.907h-1.189v.984h1.189v4.47c0 1.41.609 1.97 2.126 1.97.233 0 .458-.028.691-.069v-.99c-.219.02-.335.026-.547.026-.766 0-1.094-.369-1.094-1.237v-4.17h1.641v-.984h-1.641v-1.907h-1.176zM115.066 73h1.176v-7.37h-1.176V73zm.588-8.791c.451 0 .821-.37.821-.82 0-.452-.37-.82-.821-.82-.451 0-.82.368-.82.82 0 .45.369.82.82.82zm5.859 8.92c2.098 0 3.397-1.448 3.397-3.814 0-2.372-1.299-3.814-3.397-3.814-2.099 0-3.398 1.442-3.398 3.814 0 2.366 1.299 3.815 3.398 3.815zm0-1.059c-1.395 0-2.181-1.011-2.181-2.755 0-1.75.786-2.754 2.181-2.754 1.394 0 2.18 1.004 2.18 2.754 0 1.744-.786 2.755-2.18 2.755zm5.243.93h1.176v-4.361c0-1.292.758-2.078 1.934-2.078s1.737.628 1.737 1.955V73h1.175v-4.772c0-1.75-.923-2.727-2.577-2.727-1.128 0-1.846.478-2.215 1.292h-.109v-1.162h-1.121V73zm8.005-5.353c0 1.067.629 1.662 2.01 1.997l1.264.307c.786.192 1.169.533 1.169 1.04 0 .676-.711 1.148-1.702 1.148-.943 0-1.531-.397-1.73-1.019h-1.21c.13 1.224 1.258 2.01 2.899 2.01 1.675 0 2.953-.91 2.953-2.229 0-1.06-.67-1.66-2.058-1.996l-1.134-.273c-.868-.212-1.279-.526-1.279-1.032 0-.657.684-1.101 1.559-1.101.889 0 1.463.39 1.62.978h1.162c-.157-1.21-1.23-1.976-2.775-1.976-1.566 0-2.748.923-2.748 2.146zm-92.36 12.256c-2.79 0-4.526 1.99-4.526 5.161 0 3.159 1.695 5.168 4.525 5.168 2.817 0 4.526-2.016 4.526-5.168 0-3.165-1.723-5.16-4.526-5.16zm0 1.135c2.016 0 3.26 1.559 3.26 4.026 0 2.448-1.237 4.034-3.26 4.034-2.051 0-3.261-1.586-3.261-4.034 0-2.467 1.25-4.026 3.26-4.026zM48.907 90h1.176v-4.361c0-1.292.759-2.078 1.935-2.078 1.175 0 1.736.628 1.736 1.955V90h1.176v-4.772c0-1.75-.923-2.727-2.578-2.727-1.127 0-1.845.478-2.214 1.292h-.11v-1.162h-1.12V90zm8.244 0h1.176V79.705h-1.176V90zm4.088 2.666c1.306 0 1.894-.506 2.523-2.215l2.878-7.82H65.39l-2.017 6.063h-.11l-2.023-6.063H59.97l2.727 7.376-.136.437c-.308.889-.677 1.21-1.354 1.21-.164 0-.349-.007-.492-.034v1.005c.164.027.369.041.526.041zm10.753-8.019c0 1.067.63 1.662 2.01 1.997l1.265.307c.786.192 1.168.533 1.168 1.04 0 .676-.71 1.148-1.702 1.148-.943 0-1.53-.397-1.73-1.019h-1.21c.13 1.224 1.259 2.01 2.9 2.01 1.674 0 2.953-.91 2.953-2.229 0-1.06-.67-1.66-2.058-1.996l-1.135-.273c-.868-.212-1.278-.526-1.278-1.032 0-.657.683-1.101 1.558-1.101.889 0 1.463.39 1.62.978h1.163c-.158-1.21-1.23-1.976-2.776-1.976-1.565 0-2.748.923-2.748 2.146zm10.439-1.107c1.169 0 1.948.861 1.975 2.167h-4.06c.089-1.306.909-2.167 2.085-2.167zm1.941 4.553c-.308.65-.95.998-1.9.998-1.251 0-2.065-.923-2.126-2.38v-.054h5.297v-.45c0-2.291-1.21-3.706-3.199-3.706-2.023 0-3.322 1.504-3.322 3.821 0 2.331 1.278 3.808 3.322 3.808 1.614 0 2.762-.78 3.104-2.037h-1.176zM87.49 90h1.176v-4.566c0-1.04.814-1.791 1.935-1.791.232 0 .656.04.752.068v-1.176a5.028 5.028 0 0 0-.588-.034c-.978 0-1.826.506-2.044 1.224h-.11V82.63h-1.12V90zm5.36 0h1.175v-7.37H92.85V90zm.588-8.791c.45 0 .82-.37.82-.82 0-.451-.37-.82-.82-.82-.452 0-.82.368-.82.82 0 .45.368.82.82.82zm5.858 8.92c2.099 0 3.397-1.448 3.397-3.814 0-2.372-1.298-3.814-3.397-3.814-2.099 0-3.398 1.442-3.398 3.814 0 2.366 1.3 3.815 3.398 3.815zm0-1.059c-1.395 0-2.18-1.011-2.18-2.755 0-1.75.785-2.754 2.18-2.754 1.394 0 2.181 1.004 2.181 2.754 0 1.744-.787 2.755-2.181 2.755zm11.204-6.44h-1.176v4.362c0 1.292-.711 2.065-2.01 2.065-1.175 0-1.668-.616-1.668-1.942v-4.484h-1.175v4.771c0 1.743.861 2.728 2.515 2.728 1.128 0 1.914-.465 2.284-1.285h.109V90h1.121v-7.37zm2.044 2.017c0 1.067.629 1.662 2.01 1.997l1.264.307c.786.192 1.169.533 1.169 1.04 0 .676-.711 1.148-1.702 1.148-.943 0-1.531-.397-1.729-1.019h-1.21c.13 1.224 1.258 2.01 2.898 2.01 1.675 0 2.953-.91 2.953-2.229 0-1.06-.67-1.66-2.057-1.996l-1.135-.273c-.868-.212-1.278-.526-1.278-1.032 0-.657.683-1.101 1.558-1.101.889 0 1.463.39 1.62.978h1.162c-.157-1.21-1.23-1.976-2.775-1.976-1.565 0-2.748.923-2.748 2.146zm15.114 5.483c1.866 0 3.09-1.51 3.09-3.815 0-2.317-1.217-3.814-3.09-3.814-1.012 0-1.907.499-2.31 1.292h-.11v-4.088h-1.176V90h1.122v-1.176h.109c.465.82 1.34 1.306 2.365 1.306zm-.273-6.57c1.346 0 2.146 1.033 2.146 2.755 0 1.723-.8 2.755-2.146 2.755-1.34 0-2.174-1.052-2.174-2.755 0-1.702.834-2.754 2.174-2.754zm11.17-.93h-1.176v4.362c0 1.292-.711 2.065-2.01 2.065-1.176 0-1.668-.616-1.668-1.942v-4.484h-1.176v4.771c0 1.743.862 2.728 2.516 2.728 1.128 0 1.914-.465 2.283-1.285h.11V90h1.121v-7.37zm2.843 10.036c1.306 0 1.894-.506 2.523-2.215l2.878-7.82h-1.251l-2.017 6.063h-.109l-2.024-6.063h-1.271l2.727 7.376-.136.437c-.308.889-.677 1.21-1.354 1.21-.164 0-.348-.007-.492-.034v1.005c.164.027.369.041.526.041zm9.639-9.126c1.169 0 1.948.861 1.976 2.167h-4.061c.089-1.306.909-2.167 2.085-2.167zm1.942 4.553c-.308.65-.951.998-1.901.998-1.251 0-2.064-.923-2.126-2.38v-.054h5.298v-.45c0-2.291-1.21-3.706-3.199-3.706-2.024 0-3.322 1.504-3.322 3.821 0 2.331 1.278 3.808 3.322 3.808 1.613 0 2.761-.78 3.103-2.037h-1.175zM156.096 90h1.175v-4.566c0-1.04.814-1.791 1.935-1.791.232 0 .656.04.752.068v-1.176a5.018 5.018 0 0 0-.588-.034c-.977 0-1.825.506-2.044 1.224h-.109V82.63h-1.121V90zm5.024-5.353c0 1.067.629 1.662 2.01 1.997l1.265.307c.786.192 1.168.533 1.168 1.04 0 .676-.71 1.148-1.702 1.148-.943 0-1.531-.397-1.729-1.019h-1.21c.13 1.224 1.258 2.01 2.898 2.01 1.675 0 2.953-.91 2.953-2.229 0-1.06-.669-1.66-2.057-1.996l-1.135-.273c-.868-.212-1.278-.526-1.278-1.032 0-.657.683-1.101 1.558-1.101.889 0 1.463.39 1.62.978h1.163c-.158-1.21-1.231-1.976-2.776-1.976-1.565 0-2.748.923-2.748 2.146zM38.258 97.136V107h3.384c2.932 0 4.655-1.825 4.655-4.936 0-3.103-1.73-4.928-4.655-4.928h-3.384zm1.23 1.107h2.072c2.187 0 3.48 1.422 3.48 3.835 0 2.406-1.28 3.815-3.48 3.815h-2.072v-7.65zm11.82 8.887c2.098 0 3.397-1.449 3.397-3.815 0-2.372-1.299-3.814-3.397-3.814-2.099 0-3.398 1.442-3.398 3.814 0 2.366 1.299 3.815 3.398 3.815zm0-1.06c-1.395 0-2.181-1.011-2.181-2.755 0-1.75.786-2.754 2.18-2.754 1.395 0 2.181 1.004 2.181 2.754 0 1.744-.786 2.755-2.18 2.755zm5.243.93h1.176v-4.361c0-1.292.758-2.078 1.934-2.078s1.736.628 1.736 1.955V107h1.176v-4.771c0-1.75-.923-2.728-2.577-2.728-1.128 0-1.846.478-2.215 1.292h-.11v-1.162h-1.12V107zm9.385-6.18v-3.684h-1.093v3.684h1.093zm2.824-3.096v1.907h-1.19v.984h1.19v4.471c0 1.408.608 1.969 2.126 1.969.232 0 .458-.028.69-.069v-.991a4.847 4.847 0 0 1-.547.027c-.765 0-1.093-.369-1.093-1.237v-4.17h1.64v-.984h-1.64v-1.907H68.76zm8.374 3.923c0 1.067.629 1.662 2.01 1.997l1.264.307c.786.192 1.17.533 1.17 1.039 0 .677-.712 1.149-1.703 1.149-.943 0-1.531-.397-1.73-1.019h-1.21c.13 1.224 1.258 2.01 2.899 2.01 1.675 0 2.953-.909 2.953-2.229 0-1.059-.67-1.661-2.058-1.996l-1.134-.273c-.868-.212-1.279-.527-1.279-1.032 0-.657.684-1.101 1.559-1.101.889 0 1.463.39 1.62.978h1.162c-.157-1.21-1.23-1.976-2.775-1.976-1.566 0-2.748.923-2.748 2.146zm11.088-2.146c-1.005 0-1.887.513-2.359 1.36h-.11v-1.23h-1.12v9.83h1.176v-3.568h.109c.403.779 1.25 1.237 2.304 1.237 1.873 0 3.096-1.511 3.096-3.815 0-2.317-1.216-3.814-3.096-3.814zm-.28 6.569c-1.327 0-2.168-1.066-2.168-2.755 0-1.695.841-2.754 2.174-2.754 1.347 0 2.154 1.032 2.154 2.754 0 1.723-.807 2.755-2.16 2.755zm7.492.028c-.855 0-1.49-.438-1.49-1.19 0-.738.492-1.128 1.613-1.203l1.982-.13v.677c0 1.053-.895 1.846-2.105 1.846zm-.22 1.032c.985 0 1.792-.431 2.27-1.217h.11V107h1.12v-5.045c0-1.531-1.004-2.454-2.802-2.454-1.572 0-2.734.779-2.892 1.962h1.19c.164-.581.78-.916 1.661-.916 1.1 0 1.668.499 1.668 1.408v.67l-2.126.13c-1.716.102-2.686.861-2.686 2.181 0 1.346 1.06 2.194 2.488 2.194zm5.675-.13h1.175v-4.566c0-1.039.746-1.873 1.709-1.873.93 0 1.539.56 1.539 1.435V107h1.175v-4.737c0-.937.684-1.702 1.709-1.702 1.039 0 1.552.533 1.552 1.62V107h1.176v-5.093c0-1.545-.841-2.406-2.345-2.406-1.018 0-1.859.513-2.256 1.292h-.109c-.342-.766-1.039-1.292-2.037-1.292-.985 0-1.723.472-2.058 1.292h-.109v-1.162h-1.121V107zm16.132 0h1.176v-4.566c0-1.039.745-1.873 1.709-1.873.93 0 1.538.56 1.538 1.435V107h1.176v-4.737c0-.937.684-1.702 1.709-1.702 1.039 0 1.552.533 1.552 1.62V107h1.176v-5.093c0-1.545-.841-2.406-2.345-2.406-1.019 0-1.859.513-2.256 1.292h-.109c-.342-.766-1.039-1.292-2.037-1.292-.985 0-1.723.472-2.058 1.292h-.109v-1.162h-1.122V107zm15.122-6.46c1.169 0 1.948.861 1.975 2.167h-4.06c.088-1.306.909-2.167 2.085-2.167zm1.941 4.553c-.308.649-.95.998-1.9.998-1.251 0-2.065-.923-2.126-2.379v-.055h5.297v-.451c0-2.29-1.209-3.705-3.199-3.705-2.023 0-3.322 1.504-3.322 3.821 0 2.331 1.278 3.808 3.322 3.808 1.614 0 2.762-.779 3.104-2.037h-1.176zm8.449 1.907v-9.864h-1.23V107h1.23zm15.586-7.37h-1.182l-1.45 5.893h-.109l-1.648-5.892h-1.127l-1.648 5.892h-.109l-1.45-5.892h-1.189l2.064 7.369h1.19l1.641-5.701h.109l1.647 5.701h1.197l2.064-7.37zm1.6 7.37h1.176v-7.37h-1.176V107zm.588-8.791c.451 0 .82-.37.82-.82a.823.823 0 0 0-.82-.82.823.823 0 0 0-.821.82c0 .45.369.82.821.82zm2.898 8.791h1.176V96.705h-1.176V107zm3.527 0h1.176V96.705h-1.176V107zm7.903-9.276v1.907h-1.19v.984h1.19v4.471c0 1.408.608 1.969 2.126 1.969.232 0 .458-.028.69-.069v-.991a4.85 4.85 0 0 1-.547.027c-.765 0-1.093-.369-1.093-1.237v-4.17h1.64v-.984h-1.64v-1.907h-1.176zm4.594 9.276h1.175v-4.566c0-1.039.814-1.791 1.935-1.791.232 0 .656.041.752.068v-1.176a5.044 5.044 0 0 0-.588-.034c-.978 0-1.825.506-2.044 1.224h-.109v-1.094h-1.121V107zm5.96 2.666c1.306 0 1.894-.506 2.523-2.215l2.878-7.82h-1.251l-2.017 6.063h-.109l-2.024-6.063h-1.271l2.728 7.376-.137.437c-.308.889-.677 1.21-1.354 1.21-.164 0-.348-.007-.492-.034v1.005c.164.027.369.041.526.041zm11.416-11.942v1.907h-1.189v.984h1.189v4.471c0 1.408.609 1.969 2.126 1.969.233 0 .458-.028.691-.069v-.991a4.85 4.85 0 0 1-.547.027c-.766 0-1.094-.369-1.094-1.237v-4.17h1.641v-.984h-1.641v-1.907h-1.176zm7.513 9.406c2.099 0 3.398-1.449 3.398-3.815 0-2.372-1.299-3.814-3.398-3.814-2.098 0-3.397 1.442-3.397 3.814 0 2.366 1.299 3.815 3.397 3.815zm0-1.06c-1.394 0-2.18-1.011-2.18-2.755 0-1.75.786-2.754 2.18-2.754 1.395 0 2.181 1.004 2.181 2.754 0 1.744-.786 2.755-2.181 2.755zm9.194.93h1.176v-4.566c0-1.039.814-1.791 1.935-1.791.232 0 .656.041.752.068v-1.176a5.044 5.044 0 0 0-.588-.034c-.978 0-1.825.506-2.044 1.224h-.109v-1.094h-1.122V107zm8.067-6.46c1.169 0 1.948.861 1.975 2.167h-4.06c.089-1.306.909-2.167 2.085-2.167zm1.941 4.553c-.307.649-.95.998-1.9.998-1.251 0-2.065-.923-2.126-2.379v-.055h5.298v-.451c0-2.29-1.21-3.705-3.199-3.705-2.024 0-3.323 1.504-3.323 3.821 0 2.331 1.279 3.808 3.323 3.808 1.613 0 2.761-.779 3.103-2.037h-1.176zm6.706-5.592c-1.005 0-1.886.513-2.358 1.36h-.109v-1.23h-1.121v9.83h1.175v-3.568h.11c.403.779 1.251 1.237 2.303 1.237 1.873 0 3.097-1.511 3.097-3.815 0-2.317-1.217-3.814-3.097-3.814zm-.28 6.569c-1.326 0-2.167-1.066-2.167-2.755 0-1.695.841-2.754 2.174-2.754 1.347 0 2.153 1.032 2.153 2.754 0 1.723-.806 2.755-2.16 2.755zm5.291.93h1.176V96.705h-1.176V107zm4.088 2.666c1.306 0 1.894-.506 2.522-2.215l2.878-7.82h-1.251l-2.016 6.063h-.11l-2.023-6.063h-1.271l2.727 7.376-.137.437c-.307.889-.676 1.21-1.353 1.21a2.86 2.86 0 0 1-.492-.034v1.005c.164.027.369.041.526.041zm13.193-3.568c-.854 0-1.49-.438-1.49-1.19 0-.738.492-1.128 1.613-1.203l1.983-.13v.677c0 1.053-.896 1.846-2.106 1.846zm-.218 1.032c.984 0 1.791-.431 2.269-1.217h.11V107h1.121v-5.045c0-1.531-1.005-2.454-2.803-2.454-1.572 0-2.735.779-2.892 1.962h1.19c.164-.581.779-.916 1.661-.916 1.1 0 1.668.499 1.668 1.408v.67l-2.126.13c-1.716.102-2.687.861-2.687 2.181 0 1.346 1.06 2.194 2.489 2.194zm5.503-5.483c0 1.067.628 1.662 2.009 1.997l1.265.307c.786.192 1.169.533 1.169 1.039 0 .677-.711 1.149-1.702 1.149-.944 0-1.532-.397-1.73-1.019h-1.21c.13 1.224 1.258 2.01 2.899 2.01 1.675 0 2.953-.909 2.953-2.229 0-1.059-.67-1.661-2.058-1.996l-1.135-.273c-.868-.212-1.278-.527-1.278-1.032 0-.657.684-1.101 1.559-1.101.888 0 1.463.39 1.62.978h1.162c-.157-1.21-1.23-1.976-2.775-1.976-1.566 0-2.748.923-2.748 2.146zm9.768 4.451c-.854 0-1.49-.438-1.49-1.19 0-.738.492-1.128 1.613-1.203l1.983-.13v.677c0 1.053-.896 1.846-2.106 1.846zm-.219 1.032c.985 0 1.791-.431 2.27-1.217h.109V107h1.121v-5.045c0-1.531-1.005-2.454-2.802-2.454-1.573 0-2.735.779-2.892 1.962h1.189c.165-.581.78-.916 1.662-.916 1.1 0 1.668.499 1.668 1.408v.67l-2.126.13c-1.716.102-2.687.861-2.687 2.181 0 1.346 1.06 2.194 2.488 2.194zm9.263-7.629c-1.005 0-1.887.513-2.358 1.36h-.11v-1.23h-1.121v9.83h1.176v-3.568h.109c.404.779 1.251 1.237 2.304 1.237 1.873 0 3.097-1.511 3.097-3.815 0-2.317-1.217-3.814-3.097-3.814zm-.28 6.569c-1.326 0-2.167-1.066-2.167-2.755 0-1.695.841-2.754 2.174-2.754 1.346 0 2.153 1.032 2.153 2.754 0 1.723-.807 2.755-2.16 2.755zm-237.877 8.066V124h1.23v-3.521h2.482c1.852 0 3.172-1.305 3.172-3.151 0-1.88-1.292-3.192-3.159-3.192h-3.725zm1.23 1.093h2.174c1.429 0 2.215.746 2.215 2.099 0 1.306-.814 2.058-2.215 2.058h-2.174v-4.157zm9.516 7.869c-.855 0-1.49-.438-1.49-1.19 0-.738.492-1.128 1.613-1.203l1.982-.13v.677c0 1.053-.895 1.846-2.105 1.846zm-.219 1.032c.985 0 1.791-.431 2.27-1.217h.11V124h1.12v-5.045c0-1.531-1.005-2.454-2.803-2.454-1.572 0-2.734.779-2.891 1.962h1.19c.163-.581.779-.916 1.66-.916 1.101 0 1.668.499 1.668 1.408v.67l-2.126.13c-1.715.102-2.686.861-2.686 2.181 0 1.346 1.06 2.194 2.488 2.194zm6.03 2.536c1.305 0 1.893-.506 2.522-2.215l2.878-7.82h-1.251l-2.017 6.063h-.11l-2.023-6.063h-1.271l2.727 7.376-.136.437c-.308.889-.677 1.21-1.354 1.21-.164 0-.348-.007-.492-.034v1.005c.164.027.37.041.527.041zm8.34-2.666v-7.649h.109L68.616 124h1.197v-9.864h-1.217v7.676h-.11l-5.352-7.676h-1.197V124h1.217zm12.051.13c2.099 0 3.397-1.449 3.397-3.815 0-2.372-1.298-3.814-3.397-3.814-2.099 0-3.397 1.442-3.397 3.814 0 2.366 1.298 3.815 3.397 3.815zm0-1.06c-1.395 0-2.18-1.011-2.18-2.755 0-1.75.785-2.754 2.18-2.754s2.18 1.004 2.18 2.754c0 1.744-.785 2.755-2.18 2.755zm14.24-6.439h-1.183l-1.45 5.892h-.109l-1.647-5.892h-1.128l-1.648 5.892h-.11l-1.448-5.892h-1.19L81.598 124h1.19l1.64-5.701h.11L86.184 124h1.196l2.064-7.369zm8.551 7.499c2.099 0 3.398-1.449 3.398-3.815 0-2.372-1.299-3.814-3.398-3.814s-3.397 1.442-3.397 3.814c0 2.366 1.298 3.815 3.397 3.815zm0-1.06c-1.394 0-2.18-1.011-2.18-2.755 0-1.75.786-2.754 2.18-2.754 1.395 0 2.181 1.004 2.181 2.754 0 1.744-.786 2.755-2.18 2.755zm5.243.93h1.176v-4.566c0-1.039.813-1.791 1.935-1.791.232 0 .656.041.752.068v-1.176a5.183 5.183 0 0 0-.588-.034c-.978 0-1.826.506-2.044 1.224h-.11v-1.094h-1.121V124zm13.282 0c2.099 0 3.343-1.032 3.343-2.769 0-1.305-.854-2.228-2.201-2.399v-.109c.95-.171 1.702-1.101 1.702-2.126 0-1.511-1.107-2.461-2.919-2.461h-3.773V124h3.848zm-2.618-8.777h2.284c1.223 0 1.934.581 1.934 1.586 0 1.045-.759 1.579-2.249 1.579h-1.969v-3.165zm0 7.69v-3.466h2.318c1.572 0 2.379.581 2.379 1.723 0 1.142-.78 1.743-2.263 1.743h-2.434zm10.09.185c-.854 0-1.49-.438-1.49-1.19 0-.738.492-1.128 1.613-1.203l1.983-.13v.677c0 1.053-.896 1.846-2.106 1.846zm-.219 1.032c.985 0 1.791-.431 2.27-1.217h.109V124h1.121v-5.045c0-1.531-1.004-2.454-2.802-2.454-1.573 0-2.735.779-2.892 1.962h1.19c.164-.581.779-.916 1.661-.916 1.1 0 1.668.499 1.668 1.408v.67l-2.126.13c-1.716.102-2.687.861-2.687 2.181 0 1.346 1.06 2.194 2.488 2.194zm5.674-.13h1.176v-4.361c0-1.292.759-2.078 1.935-2.078 1.175 0 1.736.628 1.736 1.955V124h1.176v-4.771c0-1.75-.923-2.728-2.577-2.728-1.128 0-1.846.478-2.215 1.292h-.11v-1.162h-1.121V124zm9.53-4.149h-.11v-6.146h-1.176V124h1.176v-2.796l.704-.656 2.762 3.452h1.497l-3.384-4.211 3.172-3.158h-1.442l-3.199 3.22zM153.122 124v-8.757h3.179v-1.107h-7.588v1.107h3.179V124h1.23zm3.903 0h1.176v-4.566c0-1.039.814-1.791 1.935-1.791.232 0 .656.041.752.068v-1.176a5.183 5.183 0 0 0-.588-.034c-.978 0-1.825.506-2.044 1.224h-.11v-1.094h-1.121V124zm7.602-.902c-.855 0-1.49-.438-1.49-1.19 0-.738.492-1.128 1.613-1.203l1.982-.13v.677c0 1.053-.895 1.846-2.105 1.846zm-.219 1.032c.985 0 1.791-.431 2.27-1.217h.109V124h1.121v-5.045c0-1.531-1.005-2.454-2.803-2.454-1.572 0-2.734.779-2.891 1.962h1.189c.164-.581.78-.916 1.661-.916 1.101 0 1.668.499 1.668 1.408v.67l-2.126.13c-1.715.102-2.686.861-2.686 2.181 0 1.346 1.059 2.194 2.488 2.194zm5.674-.13h1.176v-4.361c0-1.292.759-2.078 1.934-2.078 1.176 0 1.737.628 1.737 1.955V124h1.175v-4.771c0-1.75-.922-2.728-2.577-2.728-1.128 0-1.845.478-2.215 1.292h-.109v-1.162h-1.121V124zm8.005-5.353c0 1.067.629 1.662 2.01 1.997l1.264.307c.786.192 1.169.533 1.169 1.039 0 .677-.711 1.149-1.702 1.149-.943 0-1.531-.397-1.729-1.019h-1.21c.13 1.224 1.257 2.01 2.898 2.01 1.675 0 2.953-.909 2.953-2.229 0-1.059-.67-1.661-2.057-1.996l-1.135-.273c-.868-.212-1.278-.527-1.278-1.032 0-.657.683-1.101 1.558-1.101.889 0 1.463.39 1.62.978h1.162c-.157-1.21-1.23-1.976-2.775-1.976-1.565 0-2.748.923-2.748 2.146zm7.991 5.353h1.176v-6.385h1.688v-.984h-1.688v-.786c0-.807.355-1.217 1.203-1.217.212 0 .41.007.554.034v-.957a4.119 4.119 0 0 0-.793-.068c-1.402 0-2.14.704-2.14 2.174v.82h-1.224v.984h1.224V124zm7.205-6.46c1.169 0 1.948.861 1.976 2.167h-4.061c.089-1.306.909-2.167 2.085-2.167zm1.942 4.553c-.308.649-.951.998-1.901.998-1.251 0-2.064-.923-2.126-2.379v-.055h5.298v-.451c0-2.29-1.21-3.705-3.199-3.705-2.024 0-3.322 1.504-3.322 3.821 0 2.331 1.278 3.808 3.322 3.808 1.613 0 2.762-.779 3.103-2.037h-1.175zm3.117 1.907h1.176v-4.566c0-1.039.813-1.791 1.934-1.791.233 0 .656.041.752.068v-1.176a5.155 5.155 0 0 0-.588-.034c-.977 0-1.825.506-2.044 1.224h-.109v-1.094h-1.121V124zm12.311.13c2.099 0 3.398-1.449 3.398-3.815 0-2.372-1.299-3.814-3.398-3.814-2.098 0-3.397 1.442-3.397 3.814 0 2.366 1.299 3.815 3.397 3.815zm0-1.06c-1.394 0-2.18-1.011-2.18-2.755 0-1.75.786-2.754 2.18-2.754 1.395 0 2.181 1.004 2.181 2.754 0 1.744-.786 2.755-2.181 2.755zm5.243.93h1.176v-4.361c0-1.292.759-2.078 1.935-2.078 1.176 0 1.736.628 1.736 1.955V124h1.176v-4.771c0-1.75-.923-2.728-2.577-2.728-1.128 0-1.846.478-2.215 1.292h-.109v-1.162h-1.122V124zm8.245 0h1.175v-10.295h-1.175V124zm4.088 2.666c1.305 0 1.893-.506 2.522-2.215l2.878-7.82h-1.251l-2.017 6.063h-.109l-2.023-6.063h-1.272l2.728 7.376-.137.437c-.308.889-.677 1.21-1.354 1.21-.164 0-.348-.007-.492-.034v1.005c.164.027.369.041.527.041zm6.692-.157l1.073-3.89h-1.306l-.649 3.89h.882zM243.65 124v-7.649h.11l5.352 7.649h1.197v-9.864h-1.217v7.676h-.11l-5.352-7.676h-1.196V124h1.216zm13.317-10.097c-2.789 0-4.526 1.99-4.526 5.161 0 3.159 1.696 5.168 4.526 5.168 2.816 0 4.525-2.016 4.525-5.168 0-3.165-1.722-5.161-4.525-5.161zm0 1.135c2.016 0 3.261 1.559 3.261 4.026 0 2.448-1.238 4.034-3.261 4.034-2.051 0-3.261-1.586-3.261-4.034 0-2.467 1.251-4.026 3.261-4.026zm14.581 9.194c2.098 0 3.657-1.169 3.985-2.98h-1.251c-.314 1.142-1.36 1.846-2.734 1.846-1.901 0-3.09-1.552-3.09-4.027 0-2.474 1.189-4.033 3.083-4.033 1.36 0 2.413.8 2.741 2.071h1.251c-.294-1.9-1.914-3.206-3.992-3.206-2.68 0-4.348 1.983-4.348 5.168 0 3.179 1.675 5.161 4.355 5.161zm12.188-.232h1.292l-3.636-9.864h-1.217L276.538 124h1.292l.991-2.823h3.924l.991 2.823zm-3.007-8.271h.109l1.545 4.402h-3.199l1.545-4.402zm5.557 5.694c.13 1.702 1.572 2.809 3.664 2.809 2.256 0 3.685-1.155 3.685-2.966 0-1.45-.821-2.243-2.864-2.755l-1.033-.274c-1.36-.348-1.9-.793-1.9-1.565 0-.998.868-1.654 2.181-1.654 1.23 0 2.064.601 2.235 1.613h1.237c-.102-1.593-1.524-2.728-3.431-2.728-2.085 0-3.487 1.135-3.487 2.81 0 1.401.773 2.208 2.557 2.659l1.265.328c1.36.342 1.975.875 1.975 1.716 0 .978-.977 1.695-2.304 1.695-1.401 0-2.385-.656-2.536-1.688h-1.244zM303.561 124v-9.864h-1.231v4.265h-5.414v-4.265h-1.23V124h1.23v-4.491h5.414V124h1.231zM38.176 158h1.176v-4.361c0-1.244.724-2.078 2.044-2.078 1.114 0 1.702.649 1.702 1.955V158h1.175v-4.771c0-1.73-.984-2.728-2.543-2.728-1.127 0-1.9.478-2.27 1.292h-.108v-4.088h-1.176V158zm8.736-9.276v1.907h-1.19v.984h1.19v4.471c0 1.408.608 1.969 2.126 1.969.233 0 .458-.028.69-.069v-.991a4.845 4.845 0 0 1-.546.027c-.766 0-1.094-.369-1.094-1.237v-4.17h1.64v-.984h-1.64v-1.907h-1.176zm5.086 0v1.907h-1.19v.984h1.19v4.471c0 1.408.608 1.969 2.126 1.969.232 0 .458-.028.69-.069v-.991a4.847 4.847 0 0 1-.546.027c-.766 0-1.094-.369-1.094-1.237v-4.17h1.64v-.984h-1.64v-1.907h-1.176zm8.183 1.777c-1.005 0-1.887.513-2.359 1.36h-.11v-1.23h-1.12v9.83h1.176v-3.568h.109c.403.779 1.25 1.237 2.304 1.237 1.873 0 3.096-1.511 3.096-3.815 0-2.317-1.217-3.814-3.096-3.814zm-.28 6.569c-1.327 0-2.168-1.066-2.168-2.755 0-1.695.841-2.754 2.174-2.754 1.347 0 2.154 1.032 2.154 2.754 0 1.723-.807 2.755-2.16 2.755zm6.193.998a.887.887 0 1 0 0-1.777.892.892 0 0 0-.889.889c0 .485.403.888.889.888zm0-5.291a.89.89 0 0 0 .888-.888.887.887 0 0 0-.888-.889.891.891 0 0 0-.889.889c0 .485.403.888.889.888zm3.13 7.322l3.555-12.394h-.998l-3.554 12.394h.998zm4.663 0l3.554-12.394h-.998l-3.554 12.394h.998zm10.814-7.212c-.205-1.313-1.299-2.386-3.09-2.386-2.064 0-3.377 1.49-3.377 3.787 0 2.345 1.32 3.842 3.384 3.842 1.77 0 2.871-.998 3.083-2.352h-1.19c-.218.834-.908 1.292-1.9 1.292-1.312 0-2.16-1.08-2.16-2.782 0-1.668.834-2.727 2.16-2.727 1.06 0 1.71.594 1.9 1.326h1.19zm4.006 4.211c-.854 0-1.49-.438-1.49-1.19 0-.738.492-1.128 1.613-1.203l1.983-.13v.677c0 1.053-.896 1.846-2.106 1.846zm-.219 1.032c.985 0 1.791-.431 2.27-1.217h.11V158h1.12v-5.045c0-1.531-1.005-2.454-2.802-2.454-1.573 0-2.735.779-2.892 1.962h1.19c.163-.581.779-.916 1.66-.916 1.101 0 1.668.499 1.668 1.408v.67l-2.126.13c-1.715.102-2.686.861-2.686 2.181 0 1.346 1.06 2.194 2.488 2.194zm5.674-.13h1.176v-4.566c0-1.039.813-1.791 1.934-1.791.233 0 .657.041.752.068v-1.176a5.167 5.167 0 0 0-.588-.034c-.977 0-1.825.506-2.043 1.224h-.11v-1.094h-1.12V158zm8.155.13c2.099 0 3.398-1.449 3.398-3.815 0-2.372-1.299-3.814-3.398-3.814-2.098 0-3.397 1.442-3.397 3.814 0 2.366 1.299 3.815 3.397 3.815zm0-1.06c-1.394 0-2.18-1.011-2.18-2.755 0-1.75.786-2.754 2.18-2.754 1.395 0 2.181 1.004 2.181 2.754 0 1.744-.786 2.755-2.181 2.755zm11.204-6.439h-1.175v4.361c0 1.292-.711 2.065-2.01 2.065-1.176 0-1.668-.616-1.668-1.942v-4.484h-1.176v4.771c0 1.744.862 2.728 2.516 2.728 1.128 0 1.914-.465 2.283-1.285h.109V158h1.121v-7.369zm2.044 2.016c0 1.067.629 1.662 2.01 1.997l1.265.307c.786.192 1.169.533 1.169 1.039 0 .677-.711 1.149-1.702 1.149-.944 0-1.532-.397-1.73-1.019h-1.21c.13 1.224 1.258 2.01 2.899 2.01 1.674 0 2.953-.909 2.953-2.229 0-1.059-.67-1.661-2.058-1.996l-1.135-.273c-.868-.212-1.278-.527-1.278-1.032 0-.657.684-1.101 1.559-1.101.888 0 1.463.39 1.62.978h1.162c-.157-1.21-1.231-1.976-2.776-1.976-1.565 0-2.748.923-2.748 2.146zm10.439-1.107c1.169 0 1.948.861 1.975 2.167h-4.06c.089-1.306.909-2.167 2.085-2.167zm1.941 4.553c-.307.649-.95.998-1.9.998-1.251 0-2.065-.923-2.126-2.379v-.055h5.298v-.451c0-2.29-1.21-3.705-3.199-3.705-2.024 0-3.323 1.504-3.323 3.821 0 2.331 1.279 3.808 3.323 3.808 1.613 0 2.761-.779 3.103-2.037h-1.176zm3.186 1.907h1.176v-10.295h-1.176V158zm3.527 0h1.176v-10.295h-1.176V158zm4.43.068a.888.888 0 1 0 0-1.777.892.892 0 0 0-.889.889c0 .485.404.888.889.888zm9.01-5.181c-.205-1.313-1.299-2.386-3.09-2.386-2.065 0-3.377 1.49-3.377 3.787 0 2.345 1.319 3.842 3.384 3.842 1.77 0 2.871-.998 3.083-2.352h-1.19c-.219.834-.909 1.292-1.9 1.292-1.313 0-2.16-1.08-2.16-2.782 0-1.668.834-2.727 2.16-2.727 1.059 0 1.709.594 1.9 1.326h1.19zm4.764 5.243c2.099 0 3.398-1.449 3.398-3.815 0-2.372-1.299-3.814-3.398-3.814-2.098 0-3.397 1.442-3.397 3.814 0 2.366 1.299 3.815 3.397 3.815zm0-1.06c-1.394 0-2.18-1.011-2.18-2.755 0-1.75.786-2.754 2.18-2.754 1.395 0 2.181 1.004 2.181 2.754 0 1.744-.786 2.755-2.181 2.755zm5.243.93h1.176v-4.566c0-1.039.745-1.873 1.709-1.873.93 0 1.538.56 1.538 1.435V158h1.176v-4.737c0-.937.684-1.702 1.709-1.702 1.039 0 1.552.533 1.552 1.62V158h1.176v-5.093c0-1.545-.841-2.406-2.345-2.406-1.019 0-1.859.513-2.256 1.292h-.109c-.342-.766-1.039-1.292-2.037-1.292-.985 0-1.723.472-2.058 1.292h-.109v-1.162h-1.122V158zm12.127 2.099l3.555-12.394h-.998l-3.555 12.394h.998zm8.381-1.969c1.866 0 3.09-1.511 3.09-3.815 0-2.317-1.217-3.814-3.09-3.814-1.011 0-1.907.499-2.31 1.292h-.11v-4.088h-1.175V158h1.121v-1.176h.109c.465.821 1.34 1.306 2.365 1.306zm-.273-6.569c1.347 0 2.146 1.032 2.146 2.754 0 1.723-.799 2.755-2.146 2.755-1.34 0-2.174-1.052-2.174-2.755 0-1.702.834-2.754 2.174-2.754zm8.148-.021c1.169 0 1.949.861 1.976 2.167h-4.061c.089-1.306.909-2.167 2.085-2.167zm1.942 4.553c-.308.649-.951.998-1.901.998-1.251 0-2.064-.923-2.126-2.379v-.055h5.298v-.451c0-2.29-1.21-3.705-3.199-3.705-2.023 0-3.322 1.504-3.322 3.821 0 2.331 1.278 3.808 3.322 3.808 1.613 0 2.762-.779 3.103-2.037h-1.175zm2.946-3.446c0 1.067.629 1.662 2.01 1.997l1.264.307c.787.192 1.169.533 1.169 1.039 0 .677-.711 1.149-1.702 1.149-.943 0-1.531-.397-1.729-1.019h-1.21c.13 1.224 1.258 2.01 2.898 2.01 1.675 0 2.953-.909 2.953-2.229 0-1.059-.67-1.661-2.057-1.996l-1.135-.273c-.868-.212-1.278-.527-1.278-1.032 0-.657.683-1.101 1.558-1.101.889 0 1.463.39 1.62.978h1.162c-.157-1.21-1.23-1.976-2.775-1.976-1.565 0-2.748.923-2.748 2.146zm7.923-3.923v1.907h-1.19v.984h1.19v4.471c0 1.408.608 1.969 2.126 1.969.232 0 .458-.028.69-.069v-.991a4.85 4.85 0 0 1-.547.027c-.765 0-1.093-.369-1.093-1.237v-4.17h1.64v-.984h-1.64v-1.907h-1.176zm4.286 3.923c0 1.067.629 1.662 2.01 1.997l1.264.307c.787.192 1.169.533 1.169 1.039 0 .677-.711 1.149-1.702 1.149-.943 0-1.531-.397-1.729-1.019h-1.21c.13 1.224 1.258 2.01 2.898 2.01 1.675 0 2.953-.909 2.953-2.229 0-1.059-.67-1.661-2.057-1.996l-1.135-.273c-.868-.212-1.278-.527-1.278-1.032 0-.657.683-1.101 1.558-1.101.889 0 1.463.39 1.62.978h1.162c-.157-1.21-1.23-1.976-2.775-1.976-1.565 0-2.748.923-2.748 2.146zm10.438-1.107c1.169 0 1.949.861 1.976 2.167h-4.061c.089-1.306.91-2.167 2.085-2.167zm1.942 4.553c-.308.649-.95.998-1.901.998-1.251 0-2.064-.923-2.126-2.379v-.055h5.298v-.451c0-2.29-1.21-3.705-3.199-3.705-2.023 0-3.322 1.504-3.322 3.821 0 2.331 1.278 3.808 3.322 3.808 1.613 0 2.762-.779 3.104-2.037h-1.176zM219.15 158h1.176v-10.295h-1.176V158zm3.528 0h1.176v-10.295h-1.176V158zm6.398-6.46c1.169 0 1.948.861 1.976 2.167h-4.061c.089-1.306.909-2.167 2.085-2.167zm1.942 4.553c-.308.649-.951.998-1.901.998-1.251 0-2.064-.923-2.126-2.379v-.055h5.298v-.451c0-2.29-1.21-3.705-3.199-3.705-2.024 0-3.322 1.504-3.322 3.821 0 2.331 1.278 3.808 3.322 3.808 1.613 0 2.762-.779 3.103-2.037h-1.175zm3.117 1.907h1.176v-4.566c0-1.039.813-1.791 1.934-1.791.233 0 .656.041.752.068v-1.176a5.155 5.155 0 0 0-.588-.034c-.977 0-1.825.506-2.044 1.224h-.109v-1.094h-1.121V158zm8.476.226c2.413 0 3.794-1.942 3.794-5.332 0-3.357-1.586-4.991-3.712-4.991-2.023 0-3.459 1.415-3.459 3.398 0 1.914 1.361 3.302 3.241 3.302 1.175 0 2.139-.561 2.625-1.518h.109c-.068 2.625-.978 4.047-2.584 4.047-.971 0-1.723-.54-1.982-1.429h-1.265c.308 1.552 1.559 2.523 3.233 2.523zm.082-4.69c-1.305 0-2.214-.93-2.214-2.276 0-1.292.963-2.277 2.228-2.277 1.265 0 2.229.998 2.229 2.318 0 1.305-.937 2.235-2.243 2.235zm8.846 4.69c2.413 0 3.794-1.942 3.794-5.332 0-3.357-1.586-4.991-3.712-4.991-2.023 0-3.459 1.415-3.459 3.398 0 1.914 1.36 3.302 3.24 3.302 1.176 0 2.14-.561 2.625-1.518h.11c-.069 2.625-.978 4.047-2.584 4.047-.971 0-1.723-.54-1.983-1.429h-1.264c.307 1.552 1.558 2.523 3.233 2.523zm.082-4.69c-1.306 0-2.215-.93-2.215-2.276 0-1.292.964-2.277 2.229-2.277 1.264 0 2.228.998 2.228 2.318 0 1.305-.936 2.235-2.242 2.235z"/>
    <defs>
        <filter id="a" width="974" height="196" x="0" y="0" color-interpolation-filters="sRGB" filterUnits="userSpaceOnUse">
            <feFlood flood-opacity="0" result="BackgroundImageFix"/>
            <feColorMatrix in="SourceAlpha" values="0 0 0 0 0 0 0 0 0 0 0 0 0 0 0 0 0 0 127 0"/>
            <feOffset dy="4"/>
            <feGaussianBlur stdDeviation="2"/>
            <feColorMatrix values="0 0 0 0 0.8 0 0 0 0 0.8 0 0 0 0 0.8 0 0 0 0.25 0"/>
            <feBlend in2="BackgroundImageFix" result="effect1_dropShadow"/>
            <feBlend in="SourceGraphic" in2="effect1_dropShadow" result="shape"/>
        </filter>
    </defs>
</svg>
